<?xml version="1.0" standalone="no"?>
<!DOCTYPE svg PUBLIC "-//W3C//DTD SVG 1.1//EN" "http://www.w3.org/Graphics/SVG/1.1/DTD/svg11.dtd">
<svg xmlns="http://www.w3.org/2000/svg">
<metadata>Copyright (C) 2015 by original authors @ fontello.com</metadata>
<defs>
<font id="promis_integritate" horiz-adv-x="240" >
<font-face font-family="promis_integritate" font-weight="400" font-stretch="normal" units-per-em="240" ascent="200" descent="-40" />
<missing-glyph horiz-adv-x="240" />
<glyph glyph-name="heart" unicode="&#xe800;" d="m120-23q-3 0-6 3l-83 80q-2 1-4 4t-8 8-9 13-7 17-3 18q0 30 17 46t47 17q8 0 17-3t16-8 13-9 10-9q5 5 10 9t13 9 16 8 17 3q30 0 47-17t17-46q0-29-31-60l-83-80q-3-3-6-3z" horiz-adv-x="240" />
<glyph glyph-name="heart-empty" unicode="&#xe801;" d="m223 120q0 11-3 19t-7 14-11 7-13 5-13 1-15-4-15-8-11-10-8-8q-3-3-7-3t-7 3q-3 4-8 8t-11 10-15 8-15 4-13-1-13-5-11-7-7-14-3-19q0-22 25-47l78-75 78 74q25 26 25 48z m17 0q0-29-31-60l-83-80q-3-3-6-3t-6 3l-83 80q-2 1-4 4t-8 8-9 13-7 17-3 18q0 30 17 46t47 17q8 0 17-3t16-8 13-9 10-9q5 5 10 9t13 9 16 8 17 3q30 0 47-17t17-46z" horiz-adv-x="240" />
<glyph glyph-name="mail" unicode="&#xe802;" d="m223-1v102q-4-4-9-8-36-28-57-46-7-5-12-9t-11-6-14-3h0q-7 0-14 3t-11 6-12 9q-21 18-57 46-5 4-9 8v-102q0-2 1-3t3-2h198q1 0 3 2t1 3z m0 140v4t0 1-1 2 0 1-2 1-1 1h-198q-1 0-3-2t-1-3q0-22 20-38 26-20 54-42 0-1 4-4t6-5 6-4 7-4 6-1h0q3 0 6 1t7 4 6 4 6 5 4 4q28 22 54 42 7 6 14 16t6 17z m17 5v-145q0-9-6-16t-15-6h-198q-8 0-15 6t-6 16v145q0 9 6 15t15 7h198q8 0 15-7t6-15z" horiz-adv-x="240" />
<glyph glyph-name="mail-alt" unicode="&#xe803;" d="m240 105v-106q0-9-6-16t-15-6h-198q-8 0-15 6t-6 16v106q6-7 14-12 48-33 66-46 8-6 12-9t13-6 15-3h0q7 0 15 3t13 6 12 9q23 17 67 46 7 5 13 12z m0 39q0-10-7-20t-16-16q-50-35-63-44-1-1-5-4t-8-5-6-4-8-4-7-1h0q-3 0-7 1t-8 4-7 4-7 5-5 4q-13 9-36 24t-27 20q-8 5-16 15t-7 18q0 11 6 18t15 7h198q8 0 15-7t6-15z" horiz-adv-x="240" />
<glyph glyph-name="search" unicode="&#xe804;" d="m154 89q0 24-17 42t-43 18-42-18-18-42 18-43 42-17 43 17 17 43z m69-112q0-7-5-12t-12-5q-8 0-12 5l-46 46q-24-17-54-17-19 0-36 8t-30 20-21 30-7 37 7 36 21 30 30 20 36 8 37-8 30-20 20-30 8-36q0-30-17-54l46-46q5-5 5-12z" horiz-adv-x="222.9" />
<glyph glyph-name="star" unicode="&#xe805;" d="m223 113q0-3-4-6l-48-47 11-67q0-1 0-3 0-3-1-5t-4-2q-3 0-5 2l-61 31-60-31q-3-2-5-2-3 0-4 2t-2 5q0 1 1 3l11 67-49 47q-3 4-3 6 0 5 7 7l68 9 30 61q2 6 6 6t7-6l30-61 67-9q8-2 8-7z" horiz-adv-x="222.9" />
<glyph glyph-name="star-empty" unicode="&#xe806;" d="m152 66l41 39-56 9-26 51-25-51-56-9 41-39-10-57 50 27 51-27z m71 47q0-3-4-6l-48-47 11-67q0-1 0-3 0-7-5-7-3 0-5 2l-61 31-60-31q-3-2-5-2-3 0-4 2t-2 5q0 1 1 3l11 67-49 47q-3 4-3 6 0 5 7 7l68 9 30 61q2 6 6 6t7-6l30-61 67-9q8-2 8-7z" horiz-adv-x="222.9" />
<glyph glyph-name="male" unicode="&#xe807;" d="m137 106v-56q0-5-4-9t-9-4-9 4-4 9v47h-8v-122q0-6-5-11t-10-4-11 4-4 11v62h-9v-62q0-6-4-11t-11-4-10 4-5 11v122h-8v-47q0-5-4-9t-9-4-9 4-4 9v56q0 10 7 18t19 7h85q11 0 19-7t7-18z m-38 60q0-13-9-22t-21-8-22 8-8 22 8 21 22 9 21-9 9-21z" horiz-adv-x="137.1" />
<glyph glyph-name="female" unicode="&#xe808;" d="m171 59q0-6-3-10t-9-3q-7 0-11 5l-31 46h-6v-18l34-55q1-2 1-4 0-3-3-6t-6-3h-26v-36q0-6-4-11t-11-4h-21q-6 0-11 4t-4 11v36h-26q-3 0-6 3t-2 6q0 2 1 4l33 55v18h-6l-30-46q-4-5-11-5-6 0-9 3t-4 10q0 3 2 7l34 51q10 14 24 14h51q14 0 24-14l34-51q2-4 2-7z m-55 107q0-13-9-22t-21-8-22 8-8 22 8 21 22 9 21-9 9-21z" horiz-adv-x="171.4" />
<glyph glyph-name="child" unicode="&#xe809;" d="m159 127l-39-40v-110q0-6-4-10t-11-5-11 5-4 10v52h-9v-52q0-6-4-10t-11-5-10 5-5 10v110l-39 40q-3 3-3 9t3 9 9 4 10-4l30-31h49l31 31q4 4 9 4t9-4 4-9-4-9z m-43 22q0-13-9-22t-21-8-22 8-8 22 8 21 22 9 21-9 9-21z" horiz-adv-x="171.4" />
<glyph glyph-name="users" unicode="&#xe80a;" d="m79 80q-21-1-35-17h-18q-11 0-19 5t-7 16q0 47 17 47 0 0 5-2t13-6 16-3q9 0 18 3 0-5 0-9 0-18 10-34z m144-85q0-16-10-26t-26-9h-117q-16 0-26 9t-10 26q0 7 1 14t2 14 3 15 6 13 8 11 12 7 15 2q1 0 5-2t10-7 14-6 19-3 18 3 14 6 10 7 5 2q9 0 15-2t12-7 8-11 6-13 3-15 2-14 1-14z m-137 171q0-15-10-25t-25-10-24 10-10 25 10 24 24 10 25-10 10-24z m94-52q0-21-15-36t-36-15-37 15-15 36 15 37 37 15 36-15 15-37z m77-30q0-10-7-16t-19-5h-18q-14 16-35 17 11 16 11 34 0 4-1 9 9-3 18-3 8 0 16 3t13 6 6 2q16 0 16-47z m-17 82q0-15-10-25t-24-10-25 10-10 25 10 24 25 10 24-10 10-24z" horiz-adv-x="257.1" />
<glyph glyph-name="user" unicode="&#xe80b;" d="m189 12q0-16-10-26t-26-9h-117q-16 0-26 9t-10 26q0 7 0 14t2 14 4 15 6 13 8 11 11 7 15 3q2 0 6-3t10-7 14-6 18-3 18 3 15 6 10 7 5 3q8 0 15-3t12-7 8-11 6-13 3-15 2-14 1-14z m-43 119q0-21-15-36t-37-15-36 15-15 36 15 37 36 15 37-15 15-37z" horiz-adv-x="188.6" />
<glyph glyph-name="camera" unicode="&#xe80c;" d="m129 110q16 0 27-11t11-28-11-27-27-11-28 11-11 27 11 28 28 11z m94 56q14 0 24-10t10-25v-120q0-14-10-24t-24-10h-189q-14 0-24 10t-10 24v120q0 15 10 25t24 10h30l7 18q3 6 9 11t14 5h69q7 0 14-5t9-11l7-18h30z m-94-155q24 0 42 18t18 42-18 43-42 17-43-17-17-43 17-42 43-18z" horiz-adv-x="257.1" />
<glyph glyph-name="th-list" unicode="&#xe80d;" d="m69 33v-26q0-5-4-9t-9-4h-43q-6 0-9 4t-4 9v26q0 5 4 9t9 4h43q5 0 9-4t4-9z m0 68v-25q0-6-4-9t-9-4h-43q-6 0-9 4t-4 9v25q0 6 4 10t9 3h43q5 0 9-3t4-10z m171-68v-26q0-5-4-9t-9-4h-128q-6 0-10 4t-3 9v26q0 5 3 9t10 4h128q5 0 9-4t4-9z m-171 137v-26q0-5-4-9t-9-4h-43q-6 0-9 4t-4 9v26q0 5 4 9t9 4h43q5 0 9-4t4-9z m171-69v-25q0-6-4-9t-9-4h-128q-6 0-10 4t-3 9v25q0 6 3 10t10 3h128q5 0 9-3t4-10z m0 69v-26q0-5-4-9t-9-4h-128q-6 0-10 4t-3 9v26q0 5 3 9t10 4h128q5 0 9-4t4-9z" horiz-adv-x="240" />
<glyph glyph-name="ok" unicode="&#xe80e;" d="m224 124q0-5-4-9l-97-97-18-18q-4-4-9-4t-9 4l-19 18-48 49q-4 3-4 9t4 9l18 18q4 4 9 4t9-4l40-39 88 87q3 4 9 4t9-4l18-18q4-3 4-9z" horiz-adv-x="240" />
<glyph glyph-name="ok-circled" unicode="&#xe80f;" d="m172 102q0 3-2 6l-13 12q-2 2-6 2t-6-2l-54-55-31 31q-2 2-6 2t-6-2l-12-12q-2-3-2-7 0-3 2-6l49-48q2-3 6-3 3 0 6 3l73 73q2 2 2 6z m34-22q0-28-14-52t-38-37-51-14-52 14-37 37-14 52 14 52 37 37 52 14 51-14 38-37 14-52z" horiz-adv-x="205.7" />
<glyph glyph-name="ok-squared" unicode="&#xe810;" d="m92 26l82 82q2 3 2 6t-2 6l-14 14q-2 2-6 2t-6-2l-62-63-29 29q-2 2-6 2t-6-2l-13-14q-3-3-3-6t3-6l48-48q2-3 6-3t6 3z m114 118v-128q0-16-12-28t-27-11h-128q-16 0-28 11t-11 28v128q0 16 11 28t28 11h128q16 0 27-11t12-28z" horiz-adv-x="205.7" />
<glyph glyph-name="cancel" unicode="&#xe811;" d="m174 23q0-5-4-9l-18-18q-4-4-9-4t-9 4l-40 39-39-39q-4-4-9-4t-9 4l-19 18q-3 4-3 9t3 9l40 39-40 40q-3 4-3 9t3 9l19 18q3 4 9 4t9-4l39-39 40 39q3 4 9 4t9-4l18-18q4-4 4-9t-4-9l-39-40 39-39q4-4 4-9z" horiz-adv-x="188.6" />
<glyph glyph-name="cancel-circled" unicode="&#xe812;" d="m154 50q0 3-3 6l-24 24 24 24q3 3 3 6 0 4-3 6l-12 12q-2 3-6 3-3 0-6-3l-24-24-24 24q-3 3-6 3-4 0-7-3l-12-12q-2-2-2-6 0-3 2-6l25-24-25-24q-2-3-2-6 0-4 2-6l12-12q3-3 7-3 3 0 6 3l24 24 24-24q3-3 6-3 4 0 6 3l12 12q3 2 3 6z m52 30q0-28-14-52t-38-37-51-14-52 14-37 37-14 52 14 52 37 37 52 14 51-14 38-37 14-52z" horiz-adv-x="205.7" />
<glyph glyph-name="plus" unicode="&#xe813;" d="m189 101v-25q0-6-4-9t-9-4h-56v-56q0-5-4-9t-9-4h-26q-5 0-9 4t-3 9v56h-56q-6 0-9 4t-4 9v25q0 6 4 10t9 3h56v56q0 5 3 9t9 4h26q5 0 9-4t4-9v-56h56q5 0 9-3t4-10z" horiz-adv-x="188.6" />
<glyph glyph-name="plus-circled" unicode="&#xe814;" d="m163 71v18q0 3-3 6t-6 2h-34v34q0 4-3 6t-6 3h-17q-3 0-6-3t-2-6v-34h-35q-3 0-6-2t-2-6v-18q0-3 2-6t6-2h35v-34q0-4 2-6t6-3h17q4 0 6 3t3 6v34h34q4 0 6 2t3 6z m43 9q0-28-14-52t-38-37-51-14-52 14-37 37-14 52 14 52 37 37 52 14 51-14 38-37 14-52z" horiz-adv-x="205.7" />
<glyph glyph-name="plus-squared" unicode="&#xe815;" d="m171 71v18q0 3-2 6t-6 2h-43v43q0 3-3 6t-6 3h-17q-3 0-6-3t-2-6v-43h-43q-4 0-6-2t-3-6v-18q0-3 3-6t6-2h43v-43q0-3 2-6t6-3h17q4 0 6 3t3 6v43h43q3 0 6 2t2 6z m35 73v-128q0-16-12-28t-27-11h-128q-16 0-28 11t-11 28v128q0 16 11 28t28 11h128q16 0 27-11t12-28z" horiz-adv-x="205.7" />
<glyph glyph-name="minus" unicode="&#xe816;" d="m189 101v-25q0-6-4-9t-9-4h-163q-6 0-9 4t-4 9v25q0 6 4 10t9 3h163q5 0 9-3t4-10z" horiz-adv-x="188.6" />
<glyph glyph-name="minus-circled" unicode="&#xe817;" d="m163 71v18q0 3-3 6t-6 2h-103q-3 0-6-2t-2-6v-18q0-3 2-6t6-2h103q4 0 6 2t3 6z m43 9q0-28-14-52t-38-37-51-14-52 14-37 37-14 52 14 52 37 37 52 14 51-14 38-37 14-52z" horiz-adv-x="205.7" />
<glyph glyph-name="minus-squared" unicode="&#xe818;" d="m171 71v18q0 3-2 6t-6 2h-120q-4 0-6-2t-3-6v-18q0-3 3-6t6-2h120q3 0 6 2t2 6z m35 73v-128q0-16-12-28t-27-11h-128q-16 0-28 11t-11 28v128q0 16 11 28t28 11h128q16 0 27-11t12-28z" horiz-adv-x="205.7" />
<glyph glyph-name="help" unicode="&#xe819;" d="m94 32v-32q0-3-1-4t-4-2h-32q-2 0-4 2t-2 4v32q0 2 2 4t4 1h32q2 0 4-1t1-4z m43 80q0-7-2-13t-5-11-8-8-7-5-8-5q-6-3-10-9t-3-9q0-2-2-4t-4-2h-32q-2 0-3 2t-2 5v6q0 11 9 21t19 15q8 3 12 7t3 10q0 6-6 10t-15 5q-8 0-14-4-5-4-15-16-1-2-4-2-1 0-3 1l-22 17q-2 1-2 3t1 4q21 36 62 36 11 0 21-4t20-12 14-17 6-21z" horiz-adv-x="137.1" />
<glyph glyph-name="help-circled" unicode="&#xe81a;" d="m120 16v25q0 2-1 4t-3 1h-26q-2 0-3-1t-1-4v-25q0-2 1-3t3-2h26q2 0 3 2t1 3z m34 90q0 11-7 22t-19 15-22 6q-33 0-50-29-2-3 1-6l18-13q1-1 2-1 2 0 3 2 8 9 12 12 5 3 12 3 6 0 11-3t5-8q0-5-3-8t-9-6q-8-4-15-12t-7-17v-4q0-2 1-4t3-1h26q2 0 3 1t1 4q0 2 3 6t7 7q4 2 7 4t6 4 6 7 4 8 1 11z m52-26q0-28-14-52t-38-37-51-14-52 14-37 37-14 52 14 52 37 37 52 14 51-14 38-37 14-52z" horiz-adv-x="205.7" />
<glyph glyph-name="info-circled" unicode="&#xe81b;" d="m137 16v21q0 2-1 3t-3 1h-13v69q0 2-1 3t-3 1h-43q-2 0-3-1t-1-3v-21q0-2 1-4t3-1h13v-43h-13q-2 0-3-1t-1-3v-21q0-2 1-3t3-2h60q2 0 3 2t1 3z m-17 120v21q0 2-1 3t-3 1h-26q-2 0-3-1t-1-3v-21q0-2 1-3t3-2h26q2 0 3 2t1 3z m86-56q0-28-14-52t-38-37-51-14-52 14-37 37-14 52 14 52 37 37 52 14 51-14 38-37 14-52z" horiz-adv-x="205.7" />
<glyph glyph-name="info" unicode="&#xe81c;" d="m86 20v-17q0-4-3-6t-6-3h-68q-4 0-6 3t-3 6v17q0 3 3 6t6 3h8v51h-8q-4 0-6 3t-3 6v17q0 3 3 6t6 2h51q3 0 6-2t3-6v-77h8q4 0 6-3t3-6z m-17 154v-25q0-4-3-6t-6-3h-34q-4 0-6 3t-3 6v25q0 4 3 6t6 3h34q3 0 6-3t3-6z" horiz-adv-x="85.7" />
<glyph glyph-name="home" unicode="&#xe81d;" d="m189 67v-64q0-4-3-6t-6-3h-51v52h-35v-52h-51q-4 0-6 3t-3 6v64q0 0 0 1t0 0l77 63 77-63q1 0 1-1z m29 9l-8-10q-1-1-3-1h0q-2 0-3 1l-93 77-92-77q-2-1-3-1-2 0-3 1l-9 10q-1 2-1 4t2 2l96 81q5 3 10 3t11-3l32-28v26q0 2 1 4t4 1h25q2 0 3-1t2-4v-54l29-25q1-1 1-2t-1-4z" horiz-adv-x="222.9" />
<glyph glyph-name="link" unicode="&#xe81e;" d="m195 37q0 5-4 9l-28 28q-3 4-9 4-5 0-9-4 0-1 2-3t3-3 2-2 2-4 0-3q0-6-3-10t-10-3q-2 0-3 0t-4 2-2 2-3 3-3 2q-4-4-4-9 0-6 4-10l27-27q4-4 9-4 6 0 10 4l19 19q4 4 4 9z m-94 95q0 5-4 9l-27 27q-4 4-10 4-5 0-9-3l-19-20q-4-4-4-9 0-5 4-9l27-28q4-4 10-4 5 0 9 5 0 0-2 2t-3 3-2 2-2 4 0 4q0 5 3 9t9 3q2 0 4 0t4-2 2-2 3-3 2-2q5 4 5 10z m120-95q0-16-12-27l-19-20q-11-11-28-11-16 0-27 12l-27 27q-12 12-12 28 0 16 12 28l-12 11q-11-11-27-11-17 0-28 11l-28 28q-11 11-11 27t12 27l19 20q11 11 27 11 17 0 28-12l27-27q11-11 11-27 0-17-11-28l11-12q12 12 28 12 16 0 28-12l27-28q12-11 12-27z" horiz-adv-x="222.9" />
<glyph glyph-name="attach" unicode="&#xe81f;" d="m188 15q0-16-11-27t-26-10q-18 0-31 13l-104 104q-15 15-15 36 0 22 14 36t36 15q21 0 37-15l81-81q1-1 1-3 0-2-4-6t-6-4q-2 0-3 1l-81 81q-11 11-25 11-14 0-24-10t-9-25q0-14 10-24l104-104q8-8 19-8 9 0 14 5t6 15q0 10-8 19l-78 78q-4 3-8 3-4 0-7-3t-2-6q0-4 3-8l55-55q1-1 1-3 0-2-4-6t-6-4q-2 0-3 1l-55 55q-8 8-8 20 0 11 7 19t19 7q12 0 20-8l78-78q13-13 13-31z" horiz-adv-x="188.6" />
<glyph glyph-name="link-ext-alt" unicode="&#xe820;" d="m171 76v64q0 3-2 6t-6 3h-64q-6 0-8-6-3-5 2-9l19-19-72-72q-2-2-2-6t2-6l14-14q3-2 6-2t6 2l72 72 19-19q2-3 6-3 1 0 3 1 5 2 5 8z m35 68v-128q0-16-12-28t-27-11h-128q-16 0-28 11t-11 28v128q0 16 11 28t28 11h128q16 0 27-11t12-28z" horiz-adv-x="205.7" />
<glyph glyph-name="tag" unicode="&#xe821;" d="m60 140q0 7-5 12t-12 5-12-5-5-12 5-12 12-5 12 5 5 12z m143-77q0-7-5-12l-66-66q-5-5-12-5-7 0-12 5l-96 96q-5 5-8 13t-4 16v56q0 7 5 12t12 5h56q7 0 16-4t13-8l96-96q5-5 5-12z" horiz-adv-x="205.7" />
<glyph glyph-name="tags" unicode="&#xe822;" d="m60 140q0 7-5 12t-12 5-12-5-5-12 5-12 12-5 12 5 5 12z m143-77q0-7-5-12l-66-66q-5-5-12-5-7 0-12 5l-96 96q-5 5-8 13t-4 16v56q0 7 5 12t12 5h56q7 0 16-4t13-8l96-96q5-5 5-12z m51 0q0-7-5-12l-65-66q-6-5-13-5-4 0-7 2t-8 6l63 63q5 5 5 12 0 7-5 12l-95 96q-5 5-14 8t-16 4h30q7 0 16-4t14-8l95-96q5-5 5-12z" horiz-adv-x="257.1" />
<glyph glyph-name="thumbs-up-alt" unicode="&#xe823;" d="m34 20q0 3-2 6t-6 3q-4 0-6-3t-3-6q0-4 3-6t6-3q3 0 6 3t2 6z m22 69v-86q0-4-3-6t-6-3h-38q-4 0-6 3t-3 6v86q0 3 3 6t6 2h38q4 0 6-2t3-6z m158 0q0-12-7-20 2-6 2-11 0-10-6-18 2-7 0-16-2-7-7-12 1-15-7-24-8-11-26-11h-17q-9 0-20 2t-16 4-16 5q-16 6-21 6-4 0-6 3t-3 6v86q0 3 3 6t5 2q4 1 11 8t13 16q9 12 14 16 2 3 4 7t2 6 2 8q1 6 2 9t2 7 5 6q2 3 6 3 6 0 11-2t8-3 5-5 4-7 1-6 1-6 0-5q0-6-1-11t-3-8-4-7q0-1-1-3t-1-3-2-3h38q10 0 18-7t7-18z" horiz-adv-x="222.9" />
<glyph glyph-name="thumbs-down-alt" unicode="&#xe824;" d="m34 123q0-4-2-6t-6-3q-4 0-6 3t-3 6q0 3 3 6t6 2q3 0 6-2t2-6z m22-69v86q0 3-3 6t-6 3h-38q-4 0-6-3t-3-6v-86q0-3 3-6t6-2h38q4 0 6 2t3 6z m151 20q7-8 7-20 0-10-7-18t-18-7h-38q1-2 2-4t1-3 1-2q3-5 4-8t2-7 2-11q0-3 0-5t-1-6-1-7-4-6-5-5-8-4-11-1q-4 0-6 3-3 2-5 6t-2 7-2 8q-1 6-2 8t-2 7-4 6q-5 5-14 16-6 9-13 17t-11 8q-3 0-5 2t-3 6v86q0 3 3 6t6 3q5 0 21 5 10 4 16 6t16 4 20 2h17q18-1 26-11 8-9 7-24 5-5 7-13 2-8 0-15 6-8 6-19 0-4-2-10z" horiz-adv-x="222.9" />
<glyph glyph-name="thumbs-up" unicode="&#xe825;" d="m34 20q0 3-2 6t-6 3-6-3-3-6 3-6 6-3 6 3 2 6z m155 77q0 7-6 12t-12 5h-47q0 8 7 22t6 21q0 13-4 20t-17 6q-4-4-5-12t-4-16-8-15q-3-3-11-12 0-1-3-4t-4-6-5-5-5-6-5-5-6-4-4-1h-5v-86h5q1 0 4 0t4-1 5-1 5-2 5-2 4-1q28-10 46-10h16q25 0 25 23 0 3 0 7 4 2 6 7t3 10-3 9q7 7 7 16 0 4-1 8t-3 6q4 0 7 6t3 11z m17 0q0-12-7-22 1-4 1-9 0-10-5-19 1-3 1-6 0-13-8-24 0-18-12-29t-30-11h-17q-13 0-26 3t-29 9q-15 5-18 5h-39q-7 0-12 5t-5 12v86q0 7 5 12t12 5h37q5 3 18 21 8 10 15 17 3 4 4 12t4 17 9 14q5 5 12 5 11 0 20-4t14-14 4-25q0-12-6-26h23q14 0 25-10t10-24z" horiz-adv-x="205.7" />
<glyph glyph-name="thumbs-down" unicode="&#xe826;" d="m34 140q0 3-2 6t-6 3-6-3-3-6 3-6 6-3 6 3 2 6z m155-77q0 5-3 11t-7 6q2 2 3 6t1 8q0 9-7 16 3 4 3 9t-3 10-6 7q0 4 0 7 0 12-6 17t-18 6h-17q-18 0-46-10-1 0-4-1t-5-2-5-2-5-1-4-1-4 0h-5v-86h5q2 0 4-1t6-4 5-5 5-6 5-5 4-6 3-4q8-9 11-12 5-6 8-15t4-16 5-12q13 0 17 6t4 20q0 8-6 21t-7 22h47q7 0 12 5t6 12z m17 0q0-14-10-24t-25-10h-23q6-14 6-26 0-16-4-25-5-9-14-14t-20-4q-7 0-12 5-5 4-8 11t-3 12-2 11-4 9q-7 7-15 17-13 17-18 21h-37q-7 0-12 5t-5 12v86q0 7 5 12t12 5h39q3 0 18 5 17 6 30 9t27 3h15q19 0 30-11t12-29v0q8-11 8-24 0-3-1-6 5-9 5-19 0-5-1-9 7-10 7-22z" horiz-adv-x="205.7" />
<glyph glyph-name="quote-right" unicode="&#xe827;" d="m103 157v-94q0-14-6-27t-14-22-22-14-27-6h-8q-4 0-6 3t-3 6v17q0 3 3 6t6 3h8q14 0 25 10t10 24v4q0 5-4 9t-9 4h-30q-11 0-19 7t-7 19v51q0 11 7 18t19 8h51q11 0 18-8t8-18z m120 0v-94q0-14-6-27t-14-22-22-14-27-6h-8q-4 0-6 3t-3 6v17q0 3 3 6t6 3h8q14 0 25 10t10 24v4q0 5-4 9t-9 4h-30q-11 0-19 7t-7 19v51q0 11 7 18t19 8h51q11 0 18-8t8-18z" horiz-adv-x="222.9" />
<glyph glyph-name="export-alt" unicode="&#xe828;" d="m135 53l47 47q2 2 2 6t-2 6l-47 47q-4 4-10 2-5-3-5-8v-22q-16 0-29-2t-22-7-15-11-10-12-6-15-3-15-1-15q0-24 23-54 1-1 3-1 1 0 2 0 3 1 2 4-6 48 9 64 6 7 17 10t30 3v-21q0-6 5-8 2-1 4-1 3 0 6 3z m71 91v-128q0-16-12-28t-27-11h-128q-16 0-28 11t-11 28v128q0 16 11 28t28 11h128q16 0 27-11t12-28z" horiz-adv-x="205.7" />
<glyph glyph-name="share" unicode="&#xe829;" d="m163 63q18 0 30-13t13-30-13-30-30-13-30 13-13 30q0 2 0 5l-48 24q-12-12-29-12-18 0-30 13t-13 30 13 30 30 13q17 0 29-12l48 24q0 3 0 5 0 18 13 30t30 13 30-13 13-30-13-30-30-13q-17 0-29 12l-49-24q1-3 1-5t-1-5l49-24q12 12 29 12z" horiz-adv-x="205.7" />
<glyph glyph-name="edit" unicode="&#xe82a;" d="m119 41l15 16-20 20-15-15v-8h12v-13h8z m59 97q-2 2-5 0l-46-47q-3-2-1-5t5 1l47 46q2 3 0 5z m11-80v-25q0-16-12-27t-27-12h-111q-16 0-28 12t-11 27v111q0 16 11 28t28 11h111q8 0 16-3 2-1 2-4 0-2-1-3l-7-7q-2-2-4-1-3 1-6 1h-111q-9 0-16-7t-6-15v-111q0-9 6-15t16-7h111q9 0 15 7t6 15v17q0 1 2 3l8 8q2 2 5 1t3-4z m-13 99l38-38-90-90h-38v38z m59-18l-12-12-39 39 13 12q3 4 9 4t9-4l20-20q4-4 4-9t-4-10z" horiz-adv-x="240" />
<glyph glyph-name="comment" unicode="&#xe82b;" d="m240 80q0-23-16-43t-44-31-60-12q-9 0-19 1-27-23-62-32-7-2-15-3-3 0-4 1t-3 4v0q0 1 0 2t0 1 1 1l1 2t1 1 1 1q1 1 4 5t5 5 4 5 4 7 4 8 3 10q-21 12-33 29t-12 38q0 17 10 33t25 28 38 18 47 7q33 0 60-12t44-31 16-43z" horiz-adv-x="240" />
<glyph glyph-name="comment-empty" unicode="&#xe82c;" d="m120 149q-27 0-51-10t-38-25-14-34q0-15 10-29t27-23l11-7-3-13q-3-12-10-23 21 9 37 23l6 5 8-1q9-1 17-1 27 0 51 10t38 25 14 34-14 34-38 25-51 10z m120-69q0-23-16-43t-44-31-60-12q-9 0-19 1-27-23-62-32-7-2-15-3h-1q-2 0-4 1t-2 4v0q0 1 0 2t0 1 1 1l1 2t1 1 1 1q1 1 4 5t5 5 4 5 4 7 4 8 3 10q-21 12-33 29t-12 38q0 23 16 43t44 31 60 12 60-12 44-31 16-43z" horiz-adv-x="240" />
<glyph glyph-name="chat" unicode="&#xe82d;" d="m189 97q0-18-13-34t-34-25-48-9q-11 0-23 2-17-12-38-17-4-2-11-3h0q-2 0-3 1t-2 3q0 1 0 1t0 1 0 1l1 1t0 0 1 1 0 1 1 0q1 1 3 4t4 3 3 4 3 6 3 5q-17 10-26 24t-10 30q0 19 13 35t34 25 47 9 48-9 34-25 13-35z m51-34q0-16-10-30t-26-24q2-3 3-6t3-5 3-4 4-4 3-3q0 0 1-1t0 0 1-1 0-1l1 0t0-1 0-1 0-1q-1-2-2-3t-3-1q-7 1-12 2-20 6-37 17-12-2-23-2-37 0-64 18 8-1 12-1 22 0 42 6t35 18q17 12 26 28t9 34q0 10-3 20 17-9 27-23t10-31z" horiz-adv-x="240" />
<glyph glyph-name="attention-circled" unicode="&#xe82e;" d="m103 183q28 0 51-14t38-37 14-52-14-52-38-37-51-14-52 14-37 37-14 52 14 52 37 37 52 14z m17-167v25q0 2-1 3t-3 2h-26q-2 0-3-2t-1-3v-25q0-2 1-3t3-2h26q2 0 3 2t1 3z m0 46l2 83q0 2-1 2-2 2-3 2h-30q-2 0-3-2-1 0-1-2l2-83q0-1 1-2t3-1h25q2 0 3 1t2 2z" horiz-adv-x="205.7" />
<glyph glyph-name="attention" unicode="&#xe82f;" d="m137 16v25q0 2-1 3t-3 2h-26q-2 0-3-2t-1-3v-25q0-2 1-3t3-2h26q2 0 3 2t1 3z m0 50l2 61q0 2-1 3-2 1-3 1h-30q-1 0-3-1-1-1-1-3l2-61q0-1 1-2t4-1h24q2 0 3 1t2 2z m-2 125l103-189q5-8 0-16-3-4-7-7t-8-2h-206q-4 0-8 2t-7 7q-5 8 0 16l103 189q2 4 6 7t9 2 9-2 6-7z" horiz-adv-x="240" />
<glyph glyph-name="location" unicode="&#xe830;" d="m103 114q0 14-10 25t-24 10-25-10-10-25 10-24 25-10 24 10 10 24z m34 0q0-14-4-24l-49-103q-2-5-6-7t-9-3-9 3-7 7l-49 103q-4 10-4 24 0 29 20 49t49 20 48-20 20-49z" horiz-adv-x="137.1" />
<glyph glyph-name="direction" unicode="&#xe831;" d="m188 153l-86-171q-2-5-8-5 0 0-2 0-3 1-4 3t-2 6v77h-77q-3 0-6 2t-3 4 1 6 4 4l171 86q2 1 4 1 4 0 6-3 2-2 2-4t0-6z" horiz-adv-x="188.6" />
<glyph glyph-name="doc" unicode="&#xe832;" d="m197 149q3-4 6-10t3-12v-154q0-6-4-9t-9-4h-180q-6 0-9 4t-4 9v214q0 5 4 9t9 4h120q5 0 12-3t10-6z m-60 33v-51h50q-1 4-2 6l-42 42q-2 1-6 3z m52-205v137h-56q-6 0-9 4t-4 9v56h-103v-206h172z" horiz-adv-x="205.7" />
<glyph glyph-name="doc-text" unicode="&#xe833;" d="m197 149q3-4 6-10t3-12v-154q0-6-4-9t-9-4h-180q-6 0-9 4t-4 9v214q0 5 4 9t9 4h120q5 0 12-3t10-6z m-60 33v-51h50q-1 4-2 6l-42 42q-2 1-6 3z m52-205v137h-56q-6 0-9 4t-4 9v56h-103v-206h172z m-138 116q0 2 2 3t3 1h94q2 0 3-1t1-3v-9q0-2-1-3t-3-1h-94q-2 0-3 1t-2 3v9z m99-30q2 0 3-1t1-3v-9q0-2-1-3t-3-1h-94q-2 0-3 1t-2 3v9q0 1 2 3t3 1h94z m0-34q2 0 3-2t1-3v-8q0-2-1-3t-3-2h-94q-2 0-3 2t-2 3v8q0 2 2 3t3 2h94z" horiz-adv-x="205.7" />
<glyph glyph-name="cog" unicode="&#xe834;" d="m137 80q0 14-10 24t-24 10-24-10-10-24 10-24 24-10 24 10 10 24z m69 15v-30q0-2-1-3t-3-2l-25-4q-2-7-5-12 5-7 14-18 2-2 2-4t-2-3q-3-5-13-14t-12-10q-2 0-4 1l-18 15q-6-3-13-5-2-18-3-25-1-4-5-4h-30q-2 0-3 1t-2 3l-4 25q-6 2-12 5l-19-15q-1-1-3-1-2 0-3 2-17 15-22 22-1 2-1 3 0 2 1 3 2 3 7 9t7 10q-4 6-6 13l-24 4q-2 0-3 1t-1 3v30q0 2 1 3t3 2l25 4q1 6 5 12-6 8-15 19-1 1-1 3 0 1 1 3 4 5 13 14t13 10q2 0 4-2l18-14q6 3 12 5 2 18 4 25 1 4 5 4h30q2 0 3-1t2-3l3-25q7-2 12-5l19 15q2 1 4 1 1 0 3-2 17-16 22-22 1-1 1-3 0-2-1-3-2-3-7-9t-7-10q3-6 5-13l25-4q2 0 3-1t1-3z" horiz-adv-x="205.7" />
<glyph glyph-name="phone" unicode="&#xe835;" d="m189 34q0-4-2-10t-3-9q-2-6-16-14-13-7-25-7-3 0-7 1t-8 1-6 2-7 3-7 3q-13 4-23 11-18 10-36 28t-29 36q-6 10-11 23 0 2-2 7t-3 7-2 7-2 7 0 7q0 13 7 25 7 14 14 17 3 1 9 2t10 2q2 0 2-1 3 0 8-10 1-2 4-7t4-8 4-8q1 0 3-3t3-5 1-4q0-2-4-6t-9-8-8-7-4-6q0-1 1-3t1-3 2-3 2-2q10-19 23-32t31-23q1 0 3-2t3-2 3-1 3 0q2 0 6 3t7 9 7 8 7 4q2 0 4-1t5-3 3-2q3-2 7-4t9-5 7-4q9-5 10-7 1-1 1-3z" horiz-adv-x="188.6" />
<glyph glyph-name="rss-squared" unicode="&#xe836;" d="m69 29q0 7-5 12t-13 5-12-5-5-12 5-13 12-5 13 5 5 13z m47-13q-2 31-24 53t-53 24q-2 0-3-1t-2-4v-17q0-1 1-3t3-1q21-1 36-16t16-36q0-1 1-2t3-2h17q2 0 3 2t2 3z m51 0q-1 20-7 40t-19 35-28 27-34 19-40 7q-2 0-3-1-2-1-2-3v-17q0-2 1-3t3-2q28-1 51-15t37-37 15-50q0-2 2-3t3-2h17q1 0 3 2 1 1 1 3z m39 128v-128q0-16-12-28t-27-11h-128q-16 0-28 11t-11 28v128q0 16 11 28t28 11h128q16 0 27-11t12-28z" horiz-adv-x="205.7" />
<glyph glyph-name="phone-squared" unicode="&#xe837;" d="m171 40q0 2 0 2 0 1-5 4t-12 7l-7 4q-1 0-2 2t-4 2-3 0q-2 0-6-4t-8-9-5-4q-1 0-3 0t-2 1-2 1-2 1q-13 8-23 17t-17 23q0 1-1 2t-1 2-1 2 0 3q0 1 2 4t6 5 6 6 3 4q0 2-1 3t-2 4-1 2q-1 1-2 4t-4 6-3 6-4 6-2 2-2 1q-6 0-13-3-7-3-11-13t-5-18q0-2 1-4t0-4 2-5 1-4 2-4 1-4q8-22 29-43t43-29q1 0 4-1t4-2 4-1 5-2 4 0 4-1q8 0 18 5t12 11q3 7 3 13z m35 104v-128q0-16-12-28t-27-11h-128q-16 0-28 11t-11 28v128q0 16 11 28t28 11h128q16 0 27-11t12-28z" horiz-adv-x="205.7" />
<glyph glyph-name="menu" unicode="&#xe838;" d="m206 20v-17q0-4-3-6t-6-3h-188q-4 0-6 3t-3 6v17q0 3 3 6t6 3h188q4 0 6-3t3-6z m0 69v-18q0-3-3-6t-6-2h-188q-4 0-6 2t-3 6v18q0 3 3 6t6 2h188q4 0 6-2t3-6z m0 68v-17q0-4-3-6t-6-3h-188q-4 0-6 3t-3 6v17q0 4 3 6t6 3h188q4 0 6-3t3-6z" horiz-adv-x="205.7" />
<glyph glyph-name="doc-inv" unicode="&#xe839;" d="m137 131v64q3-2 5-4l55-55q1-2 3-5h-63z m-17-4q0-5 4-9t9-4h73v-141q0-6-4-9t-9-4h-180q-6 0-9 4t-4 9v214q0 5 4 9t9 4h107v-73z" horiz-adv-x="205.7" />
<glyph glyph-name="calendar" unicode="&#xe83a;" d="m17-23h39v39h-39v-39z m47 0h43v39h-43v-39z m-47 47h39v43h-39v-43z m47 0h43v43h-43v-43z m-47 52h39v38h-39v-38z m99-99h43v39h-43v-39z m-52 99h43v38h-43v-38z m103-99h39v39h-39v-39z m-51 47h43v43h-43v-43z m-47 116v39q0 1-2 3t-3 1h-8q-2 0-3-1t-2-3v-39q0-2 2-3t3-1h8q2 0 3 1t2 3z m98-116h39v43h-39v-43z m-51 52h43v38h-43v-38z m51 0h39v38h-39v-38z m4 64v39q0 1-1 3t-3 1h-8q-2 0-3-1t-2-3v-39q0-2 2-3t3-1h8q2 0 3 1t1 3z m52 9v-172q0-7-5-12t-12-5h-189q-7 0-12 5t-5 12v172q0 7 5 12t12 5h17v13q0 8 7 15t15 6h8q9 0 15-6t7-15v-13h51v13q0 8 6 15t16 6h8q9 0 15-6t7-15v-13h17q7 0 12-5t5-12z" horiz-adv-x="222.9" />
<glyph glyph-name="clock" unicode="&#xe83b;" d="m120 127v-60q0-2-1-3t-3-1h-43q-2 0-3 1t-1 3v9q0 2 1 3t3 1h30v47q0 2 1 3t3 1h9q2 0 3-1t1-3z m56-47q0 20-10 37t-27 26-36 10-37-10-26-26-10-37 10-37 26-26 37-10 36 10 27 26 10 37z m30 0q0-28-14-52t-38-37-51-14-52 14-37 37-14 52 14 52 37 37 52 14 51-14 38-37 14-52z" horiz-adv-x="205.7" />
<glyph glyph-name="zoom-in" unicode="&#xe83c;" d="m137 93v-9q0-1-1-3t-3-1h-30v-30q0-2-1-3t-3-1h-9q-2 0-3 1t-1 3v30h-30q-2 0-3 1t-2 3v9q0 2 2 3t3 1h30v30q0 2 1 3t3 1h9q1 0 3-1t1-3v-30h30q2 0 3-1t1-3z m17-4q0 24-17 42t-43 18-42-18-18-42 18-43 42-17 43 17 17 43z m69-112q0-7-5-12t-12-5q-8 0-12 5l-46 46q-24-17-54-17-19 0-36 8t-30 20-21 30-7 37 7 36 21 30 30 20 36 8 37-8 30-20 20-30 8-36q0-30-17-54l46-46q5-5 5-12z" horiz-adv-x="222.9" />
<glyph glyph-name="zoom-out" unicode="&#xe83d;" d="m137 93v-9q0-1-1-3t-3-1h-77q-2 0-3 1t-2 3v9q0 2 2 3t3 1h77q2 0 3-1t1-3z m17-4q0 24-17 42t-43 18-42-18-18-42 18-43 42-17 43 17 17 43z m69-112q0-7-5-12t-12-5q-8 0-12 5l-46 46q-24-17-54-17-19 0-36 8t-30 20-21 30-7 37 7 36 21 30 30 20 36 8 37-8 30-20 20-30 8-36q0-30-17-54l46-46q5-5 5-12z" horiz-adv-x="222.9" />
<glyph glyph-name="down-open" unicode="&#xe83e;" d="m225 92l-99-99q-3-3-6-3t-6 3l-99 99q-3 2-3 6t3 6l22 22q2 3 6 3t6-3l71-71 71 71q3 3 6 3t6-3l22-22q3-3 3-6t-3-6z" horiz-adv-x="240" />
<glyph glyph-name="left-open" unicode="&#xe83f;" d="m157 160l-71-71 71-72q2-2 2-6t-2-6l-22-22q-3-2-6-2t-6 2l-100 100q-2 2-2 6t2 6l100 99q2 2 6 2t6-2l22-22q2-3 2-6t-2-6z" horiz-adv-x="171.4" />
<glyph glyph-name="right-open" unicode="&#xe840;" d="m148 83l-99-100q-3-2-6-2t-6 2l-22 22q-3 3-3 6t3 6l71 72-71 71q-3 2-3 6t3 6l22 22q2 2 6 2t6-2l99-99q3-3 3-6t-3-6z" horiz-adv-x="171.4" />
<glyph glyph-name="up-open" unicode="&#xe841;" d="m225 22l-22-22q-2-3-6-3t-6 3l-71 71-71-71q-3-3-6-3t-6 3l-22 22q-3 2-3 6t3 6l99 99q3 3 6 3t6-3l99-99q3-3 3-6t-3-6z" horiz-adv-x="240" />
<glyph glyph-name="angle-left" unicode="&#xe842;" d="m84 127q0-2-1-3l-53-53 53-52q1-2 1-3t-1-3l-7-7q-1-1-3-1t-3 1l-63 62q-1 2-1 3t1 4l63 62q1 1 3 1t3-1l7-7q1-1 1-3z" horiz-adv-x="85.7" />
<glyph glyph-name="angle-right" unicode="&#xe843;" d="m80 71q0-1-2-3l-62-62q-1-1-3-1t-3 1l-7 7q-1 1-1 3t1 3l53 52-53 53q-1 1-1 3t1 3l7 7q1 1 3 1t3-1l62-62q2-2 2-4z" horiz-adv-x="85.7" />
<glyph glyph-name="angle-up" unicode="&#xe844;" d="m144 41q0-1-1-3l-7-6q-1-2-3-2t-3 2l-53 52-52-52q-2-2-4-2t-3 2l-6 6q-2 2-2 3t2 4l62 62q1 1 3 1t3-1l63-62q1-2 1-4z" horiz-adv-x="154.3" />
<glyph glyph-name="angle-down" unicode="&#xe845;" d="m144 101q0-1-1-3l-63-62q-1-1-3-1t-3 1l-62 62q-2 2-2 3t2 4l6 6q2 2 3 2t4-2l52-52 53 52q1 2 3 2t3-2l7-6q1-2 1-4z" horiz-adv-x="154.3" />
<glyph glyph-name="angle-circled-left" unicode="&#xe846;" d="m122 13l13 14q3 2 3 6t-3 6l-41 41 41 41q3 3 3 6t-3 6l-13 14q-3 2-6 2t-6-2l-61-61q-3-3-3-6t3-6l61-61q2-2 6-2t6 2z m84 67q0-28-14-52t-38-37-51-14-52 14-37 37-14 52 14 52 37 37 52 14 51-14 38-37 14-52z" horiz-adv-x="205.7" />
<glyph glyph-name="angle-circled-right" unicode="&#xe847;" d="m96 13l61 61q2 3 2 6t-2 6l-61 61q-3 2-6 2t-6-2l-14-14q-2-2-2-6t2-6l41-41-41-41q-2-3-2-6t2-6l14-14q3-2 6-2t6 2z m110 67q0-28-14-52t-38-37-51-14-52 14-37 37-14 52 14 52 37 37 52 14 51-14 38-37 14-52z" horiz-adv-x="205.7" />
<glyph glyph-name="angle-circled-up" unicode="&#xe848;" d="m156 47l14 14q2 3 2 6t-2 6l-61 61q-3 2-6 2t-6-2l-61-61q-3-2-3-6t3-6l14-14q2-2 6-2t6 2l41 42 41-42q3-2 6-2t6 2z m50 33q0-28-14-52t-38-37-51-14-52 14-37 37-14 52 14 52 37 37 52 14 51-14 38-37 14-52z" horiz-adv-x="205.7" />
<glyph glyph-name="angle-circled-down" unicode="&#xe849;" d="m109 26l61 61q2 2 2 6t-2 6l-14 14q-3 2-6 2t-6-2l-41-42-41 42q-3 2-6 2t-6-2l-14-14q-3-3-3-6t3-6l61-61q2-3 6-3t6 3z m97 54q0-28-14-52t-38-37-51-14-52 14-37 37-14 52 14 52 37 37 52 14 51-14 38-37 14-52z" horiz-adv-x="205.7" />
<glyph glyph-name="left-circled" unicode="&#xe84a;" d="m171 71v18q0 3-2 6t-6 2h-67l25 25q2 3 2 6t-2 7l-12 12q-3 2-6 2t-6-2l-49-49-12-12q-2-2-2-6t2-6l12-12 49-49q2-2 6-2t6 2l12 12q2 3 2 7t-2 6l-25 25h67q3 0 6 2t2 6z m35 9q0-28-14-52t-38-37-51-14-52 14-37 37-14 52 14 52 37 37 52 14 51-14 38-37 14-52z" horiz-adv-x="205.7" />
<glyph glyph-name="right-circled" unicode="&#xe84b;" d="m172 80q0 4-2 6l-13 12-48 49q-2 2-6 2t-6-2l-12-12q-3-3-3-7t3-6l25-25h-67q-4 0-6-2t-3-6v-18q0-3 3-6t6-2h67l-25-25q-3-3-3-6t3-7l12-12q2-2 6-2t6 2l48 49 13 12q2 2 2 6z m34 0q0-28-14-52t-38-37-51-14-52 14-37 37-14 52 14 52 37 37 52 14 51-14 38-37 14-52z" horiz-adv-x="205.7" />
<glyph glyph-name="up-circled" unicode="&#xe84c;" d="m172 80q0 4-2 6l-49 49-12 12q-3 2-6 2t-6-2l-12-12-49-49q-2-2-2-6t2-6l12-12q3-2 6-2t6 2l26 25v-67q0-3 2-6t6-3h17q4 0 6 3t3 6v67l25-25q3-3 6-3t6 3l13 12q2 3 2 6z m34 0q0-28-14-52t-38-37-51-14-52 14-37 37-14 52 14 52 37 37 52 14 51-14 38-37 14-52z" horiz-adv-x="205.7" />
<glyph glyph-name="down-circled" unicode="&#xe84d;" d="m172 80q0 3-2 6l-13 12q-2 2-6 2t-6-2l-25-25v67q0 3-3 6t-6 3h-17q-3 0-6-3t-2-6v-67l-26 25q-2 3-6 3t-6-3l-12-12q-2-3-2-6t2-6l49-49 12-12q2-2 6-2t6 2l12 12 49 49q2 2 2 6z m34 0q0-28-14-52t-38-37-51-14-52 14-37 37-14 52 14 52 37 37 52 14 51-14 38-37 14-52z" horiz-adv-x="205.7" />
<glyph glyph-name="award" unicode="&#xe84e;" d="m61 82q-10 21-10 49h-34v-12q0-11 13-22t31-15z m145 37v12h-35q0-28-10-49 19 4 32 15t13 22z m17 17v-17q0-10-6-20t-15-17-23-13-29-6q-5-7-12-13-6-4-7-9t-2-12q0-8 4-13t13-5q10 0 18-6t7-15v-9q0-1-1-3t-3-1h-111q-2 0-3 1t-2 3v9q0 9 8 15t18 6q9 0 13 5t4 13q0 6-2 12t-7 9q-7 6-12 13-16 1-29 6t-23 13-15 17-6 20v17q0 5 4 9t9 4h38v12q0 9 7 16t15 6h77q9 0 15-6t6-16v-12h39q5 0 9-4t4-9z" horiz-adv-x="222.9" />
<glyph glyph-name="globe" unicode="&#xe84f;" d="m103 183q28 0 51-14t38-37 14-52-14-52-38-37-51-14-52 14-37 37-14 52 14 52 37 37 52 14z m37-70q-1 0-2-1t-2-1q1 0 1 0t1 2 0 1q1 1 3 2 2 0 7 1 5 1 7-1 0 0 1 1t2 2q1 0 2 1t2 1l0 3q-1 0-2 1t-1 2q0 0-1-1 0 1 0 1t-2 0-1 0q-1 1-2 1t-1 2-1 2q0 1-1 2t-1 1q0 0 0 1t-1 1 0 1-1 0-1-1-1-1-1-1q0 0 0 0t-1 0-1 0 0-1q-1 0-1 0t-2 0q2 0 0 1-1 1-2 1 1 0 1 1t-1 2h1q0 1-1 1t-3 1-2 1q-1 1-4 1t-5 0q0 0 0-1t0-2 1-1q0-1-1-2t-1-2q0-1 2-2t1-3q0-1-2-2t-2-2q0-1 0-2t1-2q1-1 1-1t-1 0-1-1 0 0l-1-1q-1 0-3 1t-1 4q-1 3-3 4-3 1-3 0-1 1-6 3-3 1-8 1 1 0 0 2-1 2-2 1 0 1 0 3t0 1q1 2 2 3 0 1 1 2t1 1 0 1q5 0 7 2 1 0 2 2t1 2q1 1 2 1t2-1 2-1q2 0 2 2t-1 3q1 0 0 2 0 1-1 1-2 1-4-1-1 0 1-1 0 1-2-1t-2-2-2 0q0 0-1 2t-1 2q-1 0-2-2 0 1-1 2t-4 1q3 2-1 4-1 0-3 0t-2 0q-1-1-1-2t1-1 1-1 2 0 1-1q2-1 1-1 0-1-1-1t-2 0-1-1q0-1 0-2t0-2q0 1-1 3t-1 2q1-1-3-1l-2 0q0 0-2 0t-3 0-1 1q-1 1 0 2 0 1 0 1 0 0-1 1t-2 1q-6-2-12-5 1 0 1 0 1 0 2 1t1 0q5 2 6 1l1 1q2-2 2-3 0 0-4 0-2-1-2-2 0-1 0-2 0 0-1 1t-2 2-2 0q-2 0-3 0-20-11-32-30 1-1 2-1 0 0 1-1t0-1 1 0q2-1 1-2 0 0 6-4 2-2 3-3 0-1-2-2 0 0-1 1t-1 0q-1 0 0-2t1-2q-1 0-1-2t0-5 0-3l0 0q-1-2 1-5t2-2q-1-1 3-6 1-1 1-1 1 0 2-1t2-1 1-2q1-1 1-3t2-3q0-1 2-3t1-3q0 0 0 0t-1 0q1-1 2-2t2-2q1 0 1-1t0-1 1-1q0 3-3 9-2 3-2 3-1 1-1 3t-1 1q1 0 1 0t1 0 1-1 1 0q-1-1 0-3t1-2 3-3 1-1q1-1 2-3t0-2q1 0 3-1t2-3q1-1 1-3t1-3q0-1 1-2t2-1l2-2t2 0q0-1 2-2t3-1q1-1 2-1t2 0 2 1q2 0 4-2t3-3q4-3 7-1 0-1 0-1t1-3 1-1 1-2q1 0 2-2t3-2q1 1 1 2-1-2 1-3t2-1q2 0 2 4-4-2-7 2 0 0 0 1t0 1-1 1 0 1 1 1q1 0 1 0t0 2-1 2q0 1-1 2t-2 2q0-1-2-1t-2 1q0 0 0 0t0-1q-2 0-2 0 0 0 0 2t0 3q1 1 1 2t1 2 1 1-1 2-2 0q-3 0-4-3 0 0 0-1t-1-2-1 0q-1-1-3-1t-3 1q-2 1-3 4t-2 5q0 1 1 3t0 4-1 3q1 0 2 1t1 2q0 0 0 0t1 0 1 0 0 1q0 0-1 0 0 1 0 1 1-1 4 0t3 0q2-2 3 0 0 0 0 1t0 2q1-4 4-1 0-1 2-1t2-1q1 0 1 0t1-1 1 0 1 1q1-2 1-3 2-6 3-6 1 0 1 0t1 1 0 2 0 1l0 2v2l0 1q-2 0-3 2t0 2 2 3q0 0 1 0t2 1 2 1q3 3 2 5 1 0 2 1-1 0-1 0t-1 1-1 0q1 1 1 2 0 1 1 2t1 1q1-1 2 0 1 1 1 2 0 1 2 1t3 2q1-1 1 0t0 2 0 1q1 1 2 1t2 1l2 2q1 0 0 0 3 0 5 2 1 1-1 2 0 1-1 2t-2 0q1 0 2 0t1 1q2 1-1 2-2 0-5-2z m-22-117q27 4 47 25-1 0-2 1t-2 0q-2 1-3 1 0 1 0 2t-1 1-2 1-1 1q-1 0-1 1t-1 1-1 0-1 0-2 0l0 0q-1 0-1 0t-1-1 0 0 0 0q-3 2-5 3-1 0-1 0t-2 1-1 1-2-1q0-1-1-2t0-2q-1 1 0 2t0 3q0 0-1 0t-2 0-1-1-1-1-1-1-2-1q0-1 0-2t-1-1q0 0-2 1t-1 0q0-1 1-4t0-5q1-4-1-7-4-3-4-5-1-3 1-4 0-1-1-2t-1-3q0-1 1-2z" horiz-adv-x="205.7" />
<glyph glyph-name="leaf" unicode="&#xe850;" d="m171 106q0 3-2 6t-6 2q-23 0-43-6t-34-18-32-30q-3-3-3-6 0-3 3-6t6-2q3 0 6 2 4 3 10 10t9 9q18 16 36 23t42 7q3 0 6 3t2 6z m69 26q0-12-3-26-6-30-24-51t-48-36q-29-14-59-14-20 0-38 6-2 1-12 6t-13 5q-2 0-5-5t-6-9-7-9-8-5q-4 0-7 2t-4 3-4 6q0 0-1 1t0 1-1 2 0 1q0 5 4 10t9 9 9 8 5 6q0 1-2 5t-3 6q-1 7-1 14 0 15 6 29t16 25 23 19 27 13q8 2 20 3t24 1 24 1 21 3 16 8l4 4t4 3 3 3 5 2 6 1q5 0 9-6t7-15 3-17 1-13z" horiz-adv-x="240" />
<glyph glyph-name="suitcase" unicode="&#xe851;" d="m86 149h68v17h-68v-17z m-47 0v-172h-9q-12 0-21 9t-9 21v112q0 12 9 21t21 9h9z m150 0v-172h-138v172h18v21q0 5 3 9t9 4h78q5 0 9-4t3-9v-21h18z m51-30v-112q0-12-9-21t-21-9h-9v172h9q12 0 21-9t9-21z" horiz-adv-x="240" />
<glyph glyph-name="briefcase" unicode="&#xe852;" d="m86 166h68v17h-68v-17z m154-86v-64q0-9-6-15t-15-7h-198q-8 0-15 7t-6 15v64h90v-21q0-4 3-6t6-3h42q4 0 6 3t3 6v21h90z m-103 0v-17h-34v17h34z m103 64v-51h-240v51q0 9 6 15t15 7h48v21q0 5 3 9t9 4h78q5 0 9-4t3-9v-21h48q8 0 15-7t6-15z" horiz-adv-x="240" />
<glyph glyph-name="off" unicode="&#xe853;" d="m206 80q0-21-8-40t-22-33-33-22-40-8-40 8-33 22-22 33-8 40q0 24 11 46t30 36q6 4 13 3t11-6q4-6 3-13t-6-11q-13-10-21-24t-7-31q0-14 6-27t14-21 22-15 27-6 26 6 22 15 15 21 5 27q0 16-7 31t-20 24q-6 4-7 11t4 13q4 6 11 6t13-3q19-15 30-36t11-46z m-86 103v-86q0-7-5-12t-12-5-12 5-5 12v86q0 7 5 12t12 5 12-5 5-12z" horiz-adv-x="205.7" />
<glyph glyph-name="ellipsis" unicode="&#xe854;" d="m51 101v-25q0-6-3-9t-9-4h-26q-6 0-9 4t-4 9v25q0 6 4 10t9 3h26q5 0 9-3t3-10z m69 0v-25q0-6-4-9t-9-4h-26q-5 0-9 4t-3 9v25q0 6 3 10t9 3h26q5 0 9-3t4-10z m69 0v-25q0-6-4-9t-9-4h-26q-5 0-9 4t-4 9v25q0 6 4 10t9 3h26q5 0 9-3t4-10z" horiz-adv-x="188.6" />
<glyph glyph-name="ellipsis-vert" unicode="&#xe855;" d="m51 33v-26q0-5-3-9t-9-4h-26q-6 0-9 4t-4 9v26q0 5 4 9t9 4h26q5 0 9-4t3-9z m0 68v-25q0-6-3-9t-9-4h-26q-6 0-9 4t-4 9v25q0 6 4 10t9 3h26q5 0 9-3t3-10z m0 69v-26q0-5-3-9t-9-4h-26q-6 0-9 4t-4 9v26q0 5 4 9t9 4h26q5 0 9-4t3-9z" horiz-adv-x="51.4" />
<glyph glyph-name="circle" unicode="&#xe856;" d="m206 80q0-28-14-52t-38-37-51-14-52 14-37 37-14 52 14 52 37 37 52 14 51-14 38-37 14-52z" horiz-adv-x="205.7" />
<glyph glyph-name="circle-empty" unicode="&#xe857;" d="m103 153q-20 0-37-10t-26-26-10-37 10-37 26-26 37-10 36 10 27 26 10 37-10 37-27 26-36 10z m103-73q0-28-14-52t-38-37-51-14-52 14-37 37-14 52 14 52 37 37 52 14 51-14 38-37 14-52z" horiz-adv-x="205.7" />
<glyph glyph-name="circle-thin" unicode="&#xe858;" d="m103 166q-18 0-33-7t-28-18-18-28-7-33 7-33 18-28 28-18 33-7 33 7 27 18 19 28 7 33-7 33-19 28-27 18-33 7z m103-86q0-28-14-52t-38-37-51-14-52 14-37 37-14 52 14 52 37 37 52 14 51-14 38-37 14-52z" horiz-adv-x="205.7" />
<glyph glyph-name="asterisk" unicode="&#xe859;" d="m198 59q7-3 8-10t-1-13l-9-15q-3-6-10-8t-13 2l-36 20v-41q0-7-5-12t-12-5h-17q-7 0-12 5t-5 12v41l-36-20q-6-4-13-2t-10 8l-9 15q-3 6-2 13t8 10l36 21-36 21q-6 3-8 10t2 13l9 15q3 6 10 8t13-2l36-20v41q0 7 5 12t12 5h17q7 0 12-5t5-12v-41l36 20q6 4 13 2t10-8l9-15q3-6 1-13t-8-10l-35-21z" horiz-adv-x="222.9" />
<glyph glyph-name="gift" unicode="&#xe85a;" d="m124 18v96h-43v-96q0-3 3-5t6-2h26q3 0 6 2t2 5z m-61 113h26l-17 22q-3 4-9 4-5 0-9-4t-4-9 4-9 9-4z m92 13q0 6-3 9t-10 4q-5 0-9-4l-16-22h25q6 0 10 4t3 9z m51-34v-43q0-2-1-3t-4-1h-12v-56q0-5-4-9t-9-4h-146q-5 0-9 4t-4 9v56h-13q-2 0-3 1t-1 3v43q0 2 1 3t3 1h59q-12 0-21 9t-9 21 9 22 21 8q15 0 23-10l17-22 17 22q8 10 22 10 13 0 22-8t8-22-8-21-22-9h59q2 0 4-1t1-3z" horiz-adv-x="205.7" />
<glyph glyph-name="chart-bar" unicode="&#xe85b;" d="m86 80v-69h-35v69h35z m51 69v-138h-34v138h34z m137-155v-17h-274v206h17v-189h257z m-85 120v-103h-35v103h35z m51 52v-155h-34v155h34z" horiz-adv-x="274.3" />
<glyph glyph-name="money" unicode="&#xe85c;" d="m103 46h51v13h-17v60h-15l-20-19 10-10q6 4 8 7h0v-38h-17v-13z m68 34q0-9-2-19t-8-18-14-13-18-6-19 6-14 13-7 18-3 19 3 19 7 18 14 13 19 6 18-6 14-13 8-18 2-19z m69-34v68q-14 0-24 10t-10 25h-155q0-15-10-25t-24-10v-68q14 0 24-10t10-25h155q0 15 10 25t24 10z m17 111v-154q0-4-2-6t-6-3h-240q-4 0-6 3t-3 6v154q0 4 3 6t6 3h240q3 0 6-3t2-6z" horiz-adv-x="257.1" />
<glyph glyph-name="euro" unicode="&#xe85d;" d="m131 25l4-21q1-2 0-3t-2-2l-1 0q0-1-1-1t-3-1-2 0-4-1-4-1-4 0-5-1-5 0q-32 0-55 18t-32 47h-13q-1 0-3 1t-1 3v15q0 2 1 3t3 2h9q0 7 0 14h-9q-2 0-3 1t-1 3v15q0 2 1 3t3 1h13q9 29 33 46t54 17q13 0 26-3 1-1 2-2 1-2 1-3l-6-22q0-2-2-2t-3-1l-1 0q0 1-1 1l-3 0t-3 1-3 0-4 0-4 1q-17 0-30-9t-20-24h62q3 0 4-1 1-2 1-4l-3-15q-1-3-5-3h-65q-1-5 0-14h61q2 0 4-2 1-2 0-4l-3-15q0-1-1-2t-3-1h-52q7-16 20-25t31-9q2 0 5 0t4 0 4 1 3 1 3 0l2 1 0 0q2 1 4 0 1-1 2-3z" horiz-adv-x="137.1" />
<glyph glyph-name="pound" unicode="&#xe85e;" d="m137 48v-49q0-2-2-4t-3-1h-128q-2 0-3 1t-1 4v20q0 1 1 3t3 1h13v51h-12q-2 0-4 2t-1 3v17q0 2 1 3t4 1h12v30q0 23 17 38t42 15q25 0 45-17 1-1 1-3t-1-3l-14-17q-1-1-3-1-1-1-3 1 0 0-3 2t-9 5-13 2q-11 0-18-6t-7-17v-29h41q1 0 3-1t1-3v-17q0-2-1-3t-3-2h-41v-51h55v25q0 1 2 3t3 1h21q2 0 3-1t2-3z" horiz-adv-x="137.1" />
<glyph glyph-name="dollar" unicode="&#xe85f;" d="m131 41q0-20-13-35t-35-18v-24q0-2-1-3t-3-1h-18q-2 0-3 1t-2 3v24q-8 1-17 4t-13 6-10 6-6 5-3 3q-2 3 0 5l14 18q1 2 3 2 2 0 3-1l0-1q15-13 33-16 5-1 10-1 11 0 19 5t8 17q0 3-2 7t-4 5-8 5-9 5-11 4q-5 2-8 3t-8 4-9 4-7 5-7 6-6 6-5 8-3 9-1 10q0 19 13 33t34 18v24q0 1 2 3t3 1h18q2 0 3-1t1-3v-24q8-1 15-3t11-4 9-5 5-4 2-2q2-3 1-5l-11-20q-1-2-3-2-2 0-4 1 0 0-2 2t-5 3-8 4-10 4-11 1q-13 0-21-5t-8-15q0-4 1-7t4-5 5-5 8-4 8-3 9-4q8-3 11-4t11-5 10-6 8-6 7-9 4-10 2-13z" horiz-adv-x="137.1" />
<glyph glyph-name="rouble" unicode="&#xe860;" d="m140 124q0 14-9 22t-23 8h-43v-60h43q14 0 23 9t9 21z m31 0q0-26-17-42t-43-16h-46v-16h68q2 0 3-1t1-3v-17q0-2-1-4t-3-1h-68v-25q0-2-1-4t-3-1h-22q-2 0-4 1t-1 4v25h-30q-2 0-3 1t-1 4v17q0 2 1 3t3 1h30v16h-30q-2 0-3 1t-1 3v20q0 2 1 3t3 1h30v85q0 1 1 3t4 1h72q27 0 43-17t17-42z" horiz-adv-x="171.4" />
<glyph glyph-name="graduation-cap" unicode="&#xe861;" d="m238 88l2-42q1-10-11-17t-31-13-44-5-43 5-31 13-11 17l2 42 77-24q3-1 6-1t7 1z m71 43q0-3-3-4l-150-47q-1 0-2 0t-1 0l-87 28q-6-5-10-15t-4-24q8-5 8-15 0-9-8-14l8-58q0-2-1-3-1-2-3-2h-26q-2 0-3 2-2 1-1 3l7 58q-7 5-7 14 0 10 8 15 2 28 14 44l-45 14q-3 1-3 4t3 5l150 47q0 0 1 0t2 0l150-47q3-1 3-5z" horiz-adv-x="308.6" />
<glyph glyph-name="database" unicode="&#xe862;" d="m103 97q32 0 59 6t44 17v-23q0-9-14-17t-38-13-51-4-52 4-37 13-14 17v23q16-11 44-17t59-6z m0-103q32 0 59 6t44 17v-23q0-9-14-17t-38-12-51-5-52 5-37 12-14 17v23q16-11 44-17t59-6z m0 52q32 0 59 5t44 17v-22q0-10-14-17t-38-13-51-5-52 5-37 13-14 17v22q16-11 44-17t59-5z m0 154q28 0 51-5t38-12 14-17v-17q0-10-14-18t-38-12-51-5-52 5-37 12-14 18v17q0 9 14 17t37 12 52 5z" horiz-adv-x="205.7" />
<glyph glyph-name="facebook-squared" unicode="&#xe863;" d="m167 183q16 0 27-11t12-28v-128q0-16-12-28t-27-11h-25v80h27l4 31h-31v20q0 7 3 11t12 4l17 0v28q-9 1-24 1-18 0-29-11t-11-30v-23h-27v-31h27v-80h-71q-16 0-28 11t-11 28v128q0 16 11 28t28 11h128z" horiz-adv-x="205.7" />
<glyph glyph-name="linkedin-squared" unicode="&#xe864;" d="m32 11h31v93h-31v-93z m33 121q0 7-5 12t-13 4-12-4-5-12q0-7 5-11t12-5h0q8 0 13 5t5 11z m78-121h31v53q0 21-10 31t-26 11q-18 0-28-16h1v14h-31q0-9 0-93h31v52q0 5 1 7 2 5 6 8t9 3q16 0 16-21v-49z m63 133v-128q0-16-12-28t-27-11h-128q-16 0-28 11t-11 28v128q0 16 11 28t28 11h128q16 0 27-11t12-28z" horiz-adv-x="205.7" />
<glyph glyph-name="gplus-squared" unicode="&#xe865;" d="m111 37q0-10-8-15t-18-5q-6 0-11 1t-10 4-8 7-3 11q0 6 3 10t9 7 11 4 11 1q3 0 4-1 1 0 4-2t3-3 3-2 3-3 3-3 2-3 1-4 1-4z m-10 73q0-8-4-13t-13-6q-7 0-12 6t-8 13-2 14q0 8 4 14t12 6q8 0 13-6t8-14 2-14z m14 34l12 9h-35q-12 0-22-4t-17-14-7-20q0-13 9-21t21-8q3 0 6 0-2-3-2-7 0-6 5-12-23-2-34-9-6-4-10-10t-4-12q0-6 2-11t7-7 9-5 11-3 10-1q8 0 16 2t15 6 12 11 4 16q0 7-3 12t-6 9-8 6-6 6-3 6 2 6 5 5 6 6 5 8 2 11q0 8-3 13t-10 12h11z m39-60h17v9h-17v17h-8v-17h-17v-9h17v-21h8v21z m52 60v-128q0-16-12-28t-27-11h-128q-16 0-28 11t-11 28v128q0 16 11 28t28 11h128q16 0 27-11t12-28z" horiz-adv-x="205.7" />
<glyph glyph-name="skype" unicode="&#xe866;" d="m157 58q0 6-3 12t-6 9-10 7-11 4-12 3l-13 3q-5 1-6 2t-5 1-4 3-2 2-1 4q0 11 19 11 6 0 10-2t8-4 5-4 5-4 6-2q7 0 11 5t3 10q0 7-7 13t-19 9-25 3q-9 0-17-2t-16-6-12-12-5-17q0-8 3-14t7-10 11-7 14-4l19-5q13-3 15-5 5-2 5-8 0-5-6-8t-14-4q-7 0-12 2t-9 5-6 6-6 6-7 2q-7 0-10-4t-4-10q0-13 17-21t39-9q9 0 18 2t17 7 12 13 4 18z m49-29q0-22-15-37t-37-15q-17 0-31 11-10-2-20-2-19 0-37 7t-30 20-20 30-7 37q0 10 2 20-11 14-11 31 0 22 15 37t36 15q18 0 32-11 10 2 20 2 19 0 36-7t31-20 20-30 7-37q0-10-2-20 11-14 11-31z" horiz-adv-x="205.7" />
<glyph glyph-name="twitter-squared" unicode="&#xe867;" d="m171 118q-7-3-16-4 9 5 13 15-9-5-18-6-8 8-21 8-11 0-20-8t-8-20q0-4 1-6-17 1-33 9t-25 20q-4-6-4-14 0-15 12-23-6 0-13 3v0q0-10 6-18t17-10q-4-1-7-1-2 0-5 1 2-9 10-14t16-6q-16-12-35-12-4 0-7 1 20-13 43-13 15 0 29 5t22 12 16 19 10 22 3 22q0 2 0 4 9 6 14 14z m35 26v-128q0-16-12-28t-27-11h-128q-16 0-28 11t-11 28v128q0 16 11 28t28 11h128q16 0 27-11t12-28z" horiz-adv-x="205.7" />
<glyph glyph-name="youtube-squared" unicode="&#xe868;" d="m123 25v22q0 6-4 6-2 0-4-2v-30q2-2 4-2 4 0 4 6z m25 17h9v4q0 7-5 7t-4-7v-4z m-77 35v-9h-10v-57h-10v57h-11v9h31z m27-16v-50h-9v6q-5-6-10-6-4 0-6 4 0 2 0 7v39h8v-37q0-3 1-3 0-2 2-2 2 0 5 4v38h9z m34-15v-20q0-7-1-10-2-5-7-5-5 0-9 5v-5h-9v66h9v-21q4 5 9 5 5 0 7-5 1-3 1-10z m34-18v-1q0-4-1-6 0-2-2-5-3-5-10-5-7 0-11 5-3 3-3 11v18q0 8 3 11 3 5 10 5t11-5q3-4 3-11v-11h-18v-8q0-7 4-7 3 0 4 3 0 1 0 1t0 3v2h10z m-61 111v-21q0-7-4-7t-4 7v21q0 7 4 7t4-7z m71-96q0 24-2 35-1 6-6 10t-10 5q-18 2-55 2-37 0-55-2-6-1-10-5t-6-10q-3-12-3-35 0-23 3-35 1-5 6-9t10-5q18-2 55-2t55 2q6 1 10 5t6 9q2 12 2 35z m-101 87l12 40h-10l-6-26-8 26h-10l3-9t3-9q5-14 6-22v-26h10v26z m39-10v17q0 8-3 12-4 5-10 5-7 0-11-5-2-4-2-12v-17q0-8 2-12 4-5 11-5 6 0 10 5 3 4 3 12z m24-16h9v49h-9v-38q-3-4-5-4-2 0-2 2-1 0-1 4v36h-9v-39q0-5 1-7 2-4 6-4 5 0 10 6v-5z m68 40v-128q0-16-12-28t-27-11h-128q-16 0-28 11t-11 28v128q0 16 11 28t28 11h128q16 0 27-11t12-28z" horiz-adv-x="205.7" />
<glyph glyph-name="layers" unicode="&#xe869;" d="m4 40l107-27 108 27 0-27-108-27-107 27 0 27z m0 53l107-27 108 27 0-27-108-26-107 26 0 27z m0 54l107 27 108-27 0-27-108-27-107 27 0 27z" horiz-adv-x="222.7" />
<glyph glyph-name="resize-full" unicode="&#xe86a;" d="m188 23l31 30 0-80-81 0 31 31-31 30 19 19z m-103 164l-31-30 30-31-19-19-30 31-31-31 0 80 81 0z m0-153l-31-30 31-31-81 0 0 80 31-30 31 30z m134 153l0-80-31 31-31-31-19 19 31 31-31 30 81 0z" horiz-adv-x="222.7" />
<glyph glyph-name="resize-small" unicode="&#xe86b;" d="m169 4l-31-31 0 80 81 0-31-30 31-31-19-19z m-165 103l31 31-30 30 19 19 30-30 31 30 0-80-81 0z m0-115l31 31-31 30 81 0 0-80-31 31-31-31z m134 115l0 80 31-30 31 30 18-19-30-30 31-31-81 0z" horiz-adv-x="222.7" />
<glyph glyph-name="home-1" unicode="&#xe86c;" d="m212 134l67 0 0-22-279 0 0 22 131 0 0 41 81 0 0-41z m-186-32l226 0 0-117-136 0 0 72-41 0 0-72-49 0 0 117z m161-59l0 42-35 0 0-42 35 0z m46 0l0 42-35 0 0-42 35 0z" horiz-adv-x="278.6" />
<glyph glyph-name="dollar-1" unicode="&#xe86d;" d="m0 78c90 0 134 104 224 104 15-33 31-67 46-100-89 0-127-97-223-104-16 33-31 67-47 100z m29-16c10-22 20-43 30-65 26 5 48 17 68 33-11 4-20 14-25 25-6 12-7 26-5 40-21-15-42-28-68-33z m213 36c-11 22-21 44-31 65-26-5-47-17-68-33 12-4 20-14 25-24 6-13 7-27 5-41 21 16 43 28 69 33z m-158-73c-2 3-3 5-4 8-1 0-2 0-3 0 0-4 1-7 2-10 1 0 3 1 5 2z m6 5c1 1 2 3 3 5-3 1-6 2-9 3-1-1-1-2-1-2 2-2 5-4 7-6z m-20-5c1 3 2 5 4 8-1 0-2 1-3 1-2-2-4-4-6-7 2-1 3-2 5-2z m23 19c0 2 0 3-1 5l0 0c-3-2-6-3-9-5l0 0c1-1 1-1 1-2 4 0 6 1 9 2z m-33-10c3 1 6 2 9 3 0 1-1 2-1 3-3-1-6-1-10-1 1-2 1-3 2-5z m21 13c2 3 4 5 6 8-2 1-3 2-5 3-1-3-2-6-3-10 1 0 1-1 2-1z m-12-4c0 1 1 2 1 3-2 1-5 3-8 6-1-2-2-3-2-5 3-1 6-3 9-4z m6 6c0 3-1 6-1 9-2 0-3-1-5-1 1-2 1-3 2-5-1 2-1 3-2 5 1-3 2-6 4-9 1 0 1 0 2 1z m116 56c-4 8-7 15-11 23-2-1-3-2-4-3 3-7 6-15 10-22 2 1 2 1 5 2z m21 10c-4 8-8 15-11 23-2-1-3-2-5-2 4-8 7-15 11-22 2 0 3 1 5 1z m-11-4c-4 7-7 15-11 22-2-1-2-1-4-2 3-7 7-15 10-22 2 0 3 1 5 2z" horiz-adv-x="270.2" />
<glyph glyph-name="chart-pie" unicode="&#xe86e;" d="m194 92l-80 0 0 80c44 0 80-35 80-79l0-1z m-105-25l80 0 0 0c0-44-36-79-80-79s-79 35-79 79 35 80 79 80l0-80z" horiz-adv-x="193.7" />
<glyph glyph-name="tv" unicode="&#xe86f;" d="m9 7q-18 73 0 146 2 10 12 11 50 6 99 6t98-6q11-1 13-11 18-73 0-146-2-10-13-11-22-3-47-4 1-1 1-2 0-3-15-5t-37-3-37 3-16 5q0 1 2 2-25 1-48 4-10 1-12 11z m14 4q97-12 194 0 16 69 0 138-97 12-194 0-16-69 0-138z m15 20q-16 50 0 99 1 4 5 5 31 6 62 6t61-6q4-1 6-5 8-24 8-49t-8-50q-2-4-6-5-31-6-61-6t-62 6q-4 1-5 5z m7 3q60-13 120 0 15 47 0 94-60 12-120 0-15-47 0-94z m15 50l2 21q1 3 5 4l34 2q4 0 4-3t-4-4l-28-2q-4 0-4-4l-2-14q0-4-3-4t-4 4z m120-53q0 4 4 4l22 0q4 0 4-4t-4-4l-22 0q-4 0-4 4z m7 23q0 3 4 3l23 0q3 0 3-3t-3-4l-23 0q-4 0-4 4z m0 22q0 4 4 4l23 0q3 0 3-4t-3-4l-23 0q-4 0-4 4z m0 45q0 5 4 8t8 3 7-3 4-8-4-8-7-3-8 3-4 8z m8 0q0-4 4-4t3 4-3 4-4-4z" horiz-adv-x="240" />
<glyph glyph-name="truck" unicode="&#xe870;" d="m0 72l0 83q0 9 7 16t15 6l113 0q9 0 16-6t6-16l0-15 30 0q13 0 19-10l30-45q4-5 4-13l0-45q0-9-7-15t-16-7l-8 0q-3-10-11-16t-18-7-18 7-11 16l-39 0q-3-10-11-16t-19-7-18 7-11 16l-8 0q-9 0-16 7t-7 15l0 23q-9 0-15 7t-7 15z m15 0q0-3 2-5t5-2l113 0q3 0 5 2t2 5l0 83q0 3-2 5t-5 2l-113 0q-3 0-5-2t-2-5l0-83z m22-45q0-3 3-5t5-2l8 0q3 10 11 16t18 6 19-6 11-16l39 0q3 10 11 16t18 6 18-6 11-16l8 0q4 0 6 2t2 5l0 45q0 3-1 5l-30 45q-2 3-7 3l-30 0 0-53q0-9-6-15t-16-7l-98 0 0-23z m30-15q0-6 5-10t10-5 11 5 4 10-4 11-11 4-10-4-5-11z m98 0q0-6 4-10t11-5 11 5 4 10-4 11-11 4-11-4-4-11z m0 53l0 45q0 3 2 5t5 2l8 0q4 0 6-3l23-34q1-1 1-4l0-11q0-3-2-5t-6-3l-30 0q-3 0-5 3t-2 5z m7 0l30 0 0 11-22 34-8 0 0-45z" horiz-adv-x="240" />
<glyph glyph-name="wallet" unicode="&#xe871;" d="m0 1l0 150q0 17 12 29t29 12l154 0q9 0 16-6t6-16l0-68q23-16 23-45t-23-45l0-11q0-17-12-29t-29-12l-135 0q-17 0-29 12t-12 29z m15 0q0-11 8-18t18-8l135 0q11 0 19 8t7 18l0 11-67 0q-15 0-26 12t-12 26 12 26 26 11l67 0 0 15q0 4-2 6t-5 2l-154 0q-15 0-26 9l0-118z m0 150q0-11 7-18l0 29q0 4 3 6t5 2l157 0q4 0 6-2t2-6l0-37q4 0 7-1l0 46q0 3-2 5t-5 2l-154 0q-11 0-18-7t-8-19z m15-23q6-3 11-3l146 0 0 7-157 0 0-4z m0 12l157 0 0 7-157 0 0-7z m0 15l157 0 0 7-157 0 0-7z m82-105q0-9 7-16t16-7l77 0q13 13 13 30 0 15-8 25l0 0q-1-2-2-3-5-7-13-7l-67 0q-9 0-16-6t-7-16z m8 0q0 6 4 11t11 4 11-4 4-11-4-11-11-4-11 4-4 11z" horiz-adv-x="240" />
<glyph glyph-name="cab" unicode="&#xe872;" d="m64 54q0 9-6 15t-15 7-15-7-7-15 7-15 15-6 15 6 6 15z m5 43h136l-12 48q0 1-2 2t-2 2h-103q-1 0-3-2t-2-2z m184-43q0 9-6 15t-16 7-15-7-6-15 6-15 15-6 16 6 6 15z m21 13v-51q0-2-1-3t-3-2h-13v-17q0-10-7-18t-19-7-18 7-7 18v17h-137v-17q0-10-8-18t-18-7-18 7-8 18v17h-13q-2 0-3 2t-1 3v51q0 13 9 21t21 9h4l14 56q3 13 14 21t24 9h103q13 0 24-9t13-21l15-56h3q13 0 21-9t9-21z" horiz-adv-x="274.3" />
<glyph glyph-name="commerical-building" unicode="&#xe873;" d="m12 188c-7 0-12-5-12-12 0 0 0-128 0-192 0-6 6-12 12-12 20 0 60 0 60 0l0 36c0 7 6 12 12 12l12 0c6 0 12-5 12-12 0-12 0-24 0-36 0 0 40 0 60 0 6 0 12 6 12 12 0 64 0 192 0 192 0 7-5 12-12 12z m24-36l36 0 0-24-36 0z m72 0l36 0 0-24-36 0z m-72-72l36 0 0-24-36 0z m72 0l36 0 0-24-36 0z" horiz-adv-x="180" />
<glyph glyph-name="business_office" unicode="&#xe874;" d="m220 10h-10v-20h10v20z m0 30h-10v-20h10v20z m0 30h-10v-20h10v20z m0 30h-10v-20h10v20z m0 30h-10v-20h10v20z m0 30h-10v-20h10v20z m0 30h-10v-20h10v20z m-20-180h-20v-40h20v40z m0 30h-10v-20h10v20z m0 30h-10v-20h10v20z m0 30h-10v-20h10v20z m0 30h-10v-20h10v20z m0 30h-10v-20h10v20z m0 30h-10v-20h10v20z m-20-150h-10v-20h10v20z m0 30h-10v-20h10v20z m0 30h-10v-20h10v20z m0 30h-10v-20h10v20z m0 30h-10v-20h10v20z m0 30h-10v-20h10v20z m-20-150h-10v-20h10v20z m0 30h-10v-20h10v20z m0 30h-10v-20h10v20z m0 30h-10v-20h10v20z m0 30h-10v-20h10v20z m0 30h-10v-20h10v20z m-20-180h-10v-20h10v20z m0 30h-10v-20h10v20z m0 30h-10v-20h10v20z m0 30h-10v-20h10v20z m0 30h-10v-20h10v20z m0 30h-10v-20h10v20z m0 30h-10v-20h10v20z m10-220h20v40h-20v-40z m-60 40h-10v-10h10v10z m0 40h-10v-30h10v30z m0 30h-10v-20h10v20z m-20-70h-20v-40h20v40z m0 40h-20v-30h20v30z m0 30h-20v-20h20v20z m-30-70h-10v-10h10v10z m0 40h-10v-30h10v30z m0 30h-10v-20h10v20z m190-120h-110-10-100-10v20h10v120h100v-120h10v220h110v-220h10v-20h-10z" horiz-adv-x="240" />
<glyph glyph-name="bank" unicode="&#xe875;" d="m129 200l128-51v-18h-17q0-3-3-6t-6-2h-205q-3 0-6 2t-3 6h-17v18z m-95-86h35v-103h17v103h34v-103h17v103h34v-103h18v103h34v-103h8q4 0 6-2t3-6v-9h-223v9q0 3 3 6t6 2h8v103z m214-128q4 0 6-3t3-6v-17h-257v17q0 4 3 6t6 3h239z" horiz-adv-x="274.3" />
<glyph glyph-name="money-2" unicode="&#xe876;" d="m57 87c3 4 8 5 16 5l0-20c-12 1-18 2-18 9 0 2 0 4 2 6z m26-58l0 22c14-1 18-2 18-9 0-7-5-11-18-13z m17 58c7-4 8-5 8-9l2-1 11 22-2 1c-1-1-2-2-3-2s-2 0-3 1c-15 6-21 9-30 9l0 4c0 2 1 4 5 4l0 3-19 0 0-3c3 0 4-2 4-4l0-4c-23-1-37-12-37-29 0-18 10-24 37-26l0-24c-19 2-28 9-28 16l-2 1-10-23 2-1c1 1 2 1 3 1 0 0 1 0 2 0 11-6 22-9 33-10l0-4c0-3-1-4-4-5l0-2 19 0 0 2c-4 1-5 2-5 5l0 4c23 1 38 13 38 31 0 16-13 25-36 27l-2 0 0 21c5 0 11-2 17-5z m10 44c27-12 47-40 47-72 0-44-35-79-78-79-44 0-79 35-79 79 0 32 20 60 47 72l-19 43c0 4 3 6 7 6l87 0c4 0 7-2 7-6z" horiz-adv-x="157" />
<glyph glyph-name="calendar-1" unicode="&#xe877;" d="m0-40l0 156 214 0 0-156-214 0z m0 169l0 53 26 0 0-34 48 0 0 34 66 0 0-34 48 0 0 34 26 0 0-53-214 0z m40 34l0 37 20 0 0-37-20 0z m14-149q0-27 30-27 11 0 20 8 9 7 9 19 0 16-18 21 11 4 15 12 3 7 0 18-7 15-26 15-12 0-21-7t-9-18l18 0q0 10 11 11 11 0 11-13 0-11-20-11l0-14q12 0 16-1 6-3 6-12 0-13-13-14-10 0-11 13l-18 0z m68 35q12 3 21 11l0-71 17 0 0 89-16 0q-9-9-22-14l0-15z m32 114l0 37 20 0 0-37-20 0z" horiz-adv-x="214.3" />
<glyph glyph-name="music" unicode="&#xe878;" d="m2-15q-5 14 2 28 9 19 31 26 9 3 19 3 16 0 28-8l0 128q0 6 4 10t9 5l127 23 3 0q6 0 10-4 5-4 5-11l0-158q0-8-4-15-9-19-31-26-10-4-19-4-15 0-26 7t-15 19q-5 13 1 28 9 18 32 26 9 3 18 3 17 0 29-9l0 91-125-22-3 0 0-120q0-8-3-16-9-18-32-26-9-3-18-3-15 0-26 7t-16 18z m14 5q4-9 16-13t26 0 20 15 3 20-16 14-25-1-21-15-3-20z m81 150l127 22 0 23-127-23 0-22z m61-127q4-10 16-14t26 1 20 15 4 20-16 13-26 0-20-15-4-20z" horiz-adv-x="240" />
<glyph glyph-name="search-1" unicode="&#xe879;" d="m0-14q0 11 8 19l62 63q-10 19-10 42 0 37 26 64t64 26 64-26 26-64-26-64-64-26q-23 0-42 10l-63-62q-8-8-19-8-11 0-18 8t-8 18z m13 0q0-5 4-9t9-4 10 4l61 61q-11 8-19 19l-61-61q-4-4-4-10z m62 124q0-31 22-53t53-22 53 22 22 53-22 53-53 22-53-22-22-53z m22 0q0 22 16 37t37 15q4 0 4-3t-4-4q-19 0-32-13t-13-32q0-4-4-4t-4 4z" horiz-adv-x="240" />
<glyph glyph-name="mail-1" unicode="&#xe87a;" d="m0 35l0 97q0 13 9 22t21 8l180 0q13 0 21-8t9-22l0-97q0-13-9-21t-21-9l-180 0q-13 0-21 9t-9 21z m15 0q0-6 4-11t11-4l180 0q6 0 11 4t4 11l-59 44-32-24q-7-5-14-5t-14 5l-32 24z m0 9l52 40-52 39 0-79z m0 88l59-44 6-4 31-24q4-3 9-3t9 3l96 72q0 7-4 11t-11 4l-180 0q-6 0-11-4t-4-11z m157-48l53-40 0 79z" horiz-adv-x="240" />
<glyph glyph-name="user-1" unicode="&#xe87b;" d="m1-29q-3 10 6 17 29 18 70 27-20 26-29 62-2 13-2 29t5 36 16 33q20 25 53 25t54-25q10-14 16-33t5-36-2-29q-9-36-29-62 41-9 70-27 9-7 6-17t-15-11l-210 0q-5 0-9 3t-5 8z m14 4l210 0q-26 17-64 26l-19 4q-10-8-22-8t-22 8l-18-4q-39-9-65-26z m47 144q-3-24 4-50t23-44l2-4q13-15 29-15t30 15l2 4q16 19 23 44t4 50q-3 28-18 47t-41 19-40-19-18-47z" horiz-adv-x="240.7" />
<glyph glyph-name="heart-1" unicode="&#xe87c;" d="m0 110q0 30 21 51 20 20 49 20t50-19q21 20 50 19t49-20q21-21 21-51t-21-50q-1-1-83-82-7-7-16-7t-16 7q0 0-83 82-21 21-21 50z m15 0q0-23 17-39l83-82q5-6 10 0l83 82q17 16 17 39t-17 40q-16 16-38 16t-40-14l-10-10-10 10q-17 15-40 14t-38-16q-17-17-17-40z m22 2q0 13 10 22t22 10q4 0 4-4t-4-4q-9 0-17-7t-7-17q0-4-4-4t-4 4z" horiz-adv-x="240" />
<glyph glyph-name="star-1" unicode="&#xe87d;" d="m1 106q3 10 14 11l62 9 28 57q4 9 15 9t16-9l27-57 63-9q10-1 13-11t-4-17l-46-46 11-63q2-11-7-17-5-3-10-3-4 0-9 2l-54 29-54-29q-5-2-9-2-5 0-10 3-9 6-7 17l11 63-46 46q-7 7-4 17z m16-5l46-46q6-6 5-15l-11-63 55 29q3 2 8 2t8-2l55-29-11 63q-1 9 5 15l46 46-63 9q-9 1-13 9l-27 57-27-57q-4-8-13-9z" horiz-adv-x="240.2" />
<glyph glyph-name="videocam" unicode="&#xe87e;" d="m0 20l0 120q0 9 7 16t15 6l143 0q9 0 16-6t6-16l0-9 21 20q4 4 10 4l7 0q6 0 11-4t4-11l0-120q0-7-4-11t-11-4l-7 0q-6 0-10 4l-21 20 0-9q0-9-6-16t-16-7l-143 0q-9 0-15 7t-7 16z m15 0q0-3 2-5t5-3l143 0q3 0 5 3t2 5l0 120q0 3-2 5t-5 2l-143 0q-3 0-5-2t-2-5l0-120z m165 37l7-7 30-30 8 0 0 120-8 0-37-38 0-45z" horiz-adv-x="240" />
<glyph glyph-name="camera-1" unicode="&#xe87f;" d="m0-3l0 113q0 8 5 15t14 7l32 6 10 25q3 7 9 11t12 3l75 0q8 0 13-3t9-11l10-25 32-6q8-1 14-7t5-15l0-113q0-9-7-15t-16-7l-195 0q-9 0-15 7t-7 15z m15 0q0-3 2-5t5-2l195 0q4 0 6 2t2 5l0 113q0 7-6 7l-41 7-13 34q-2 4-8 4l-75 0q-5 0-7-4l-13-34-41-7q-6 0-6-7l0-113z m45 68q0 25 18 42t42 18 42-18 18-42-18-42-42-18-42 18-18 42z m15-4q1-18 16-30t33-11 30 16 11 33-16 30-33 11-30-16-11-33z m15 4q0 12 9 21t21 9q4 0 4-4t-4-4q-9 0-16-6t-7-16q0-4-3-4t-4 4z" horiz-adv-x="240" />
<glyph glyph-name="photo" unicode="&#xe880;" d="m0-10l0 180q0 13 9 21t21 9l165 0q13 0 21-9t9-21l0-180q0-13-9-21t-21-9l-165 0q-13 0-21 9t-9 21z m15 0q0-6 4-11t11-4l165 0q6 0 11 4t4 11l0 180q0 6-4 11t-11 4l-165 0q-6 0-11-4t-4-11l0-180z m15 37l0 135q0 4 2 6t5 2l150 0q4 0 6-2t2-6l0-135q0-3-2-5t-6-2l-150 0q-3 0-5 2t-2 5z m7 0l116 0-21 24-4 6-61 68-30-35 0-63z m0 75l25 28q2 2 5 2t6-2l59-67 20 22q2 2 5 2t6-2l24-27 0 104-150 0 0-60z m83 23q0 9 7 16t15 6 16-6 7-16-7-16-16-7-15 7-7 16z m7 0q0-6 5-11t10-4 11 4 4 11-4 11-11 4-10-4-5-11z m10-68l26-30 24 0 0 20-30 33z" horiz-adv-x="224.9" />
<glyph glyph-name="attach-1" unicode="&#xe881;" d="m0 20q0 22 15 37l110 108q19 20 47 20t48-20 20-48-20-47l-82-82q-5-6-11-1t0 11l82 82q15 15 15 36t-15 38-38 15-36-15l-109-108q-11-11-11-26t11-26 26-12 27 11l109 109q7 6 7 15t-7 16-16 7-15-7l-82-82q-6-5-11 0t0 11l82 82q11 11 26 11t27-11 11-27-11-26l-109-108q-16-16-38-16t-37 16-15 37z" horiz-adv-x="240" />
<glyph glyph-name="lock" unicode="&#xe882;" d="m0 27l0 53q0 9 7 16t15 6l0 30q0 29 20 48t48 20 48-20 19-48l0-30q10 0 16-6t7-16l0-53q0-28-20-47t-48-20l-45 0q-28 0-47 20t-20 47z m15 0q0-21 15-37t37-15l45 0q22 0 38 15t15 37l0 53q0 3-2 5t-6 2l-135 0q-3 0-5-2t-2-5l0-53z m22 75l15 0 0 30q0 16 12 27t26 11 26-11 11-27l0-30 15 0 0 30q0 22-15 38t-37 15-37-15-16-38l0-30z m23 0l60 0 0 30q0 13-9 22t-21 8-21-8-9-22l0-30z m15-60q0 7 4 11t11 4 11-4 4-11q0-6-5-20-3-10-10-10t-10 10q-5 14-5 20z" horiz-adv-x="180" />
<glyph glyph-name="eye" unicode="&#xe883;" d="m0 78l0 4q0 0 0 1l0 1q17 31 50 51t70 20 69-20 50-52l0 0 0 0 0-1q1-2 1-2t-1-2l0-1 0 0 0 0q-17-32-50-52t-69-20-70 20-50 52l0 0q0 1 0 1z m16 2q15-27 44-44t60-16 60 16 44 44q-16 27-44 44t-60 16-60-16-44-44z m51 0q0 22 15 37t38 15 37-15 15-37-15-37-37-16-38 16-15 37z m8 0q0-19 13-32t32-13 31 13 14 32-14 32-31 13-32-13-13-32z m15 0q0 13 8 21t22 9q3 0 3-4t-3-4q-9 0-16-6t-7-16q0-4-4-4t-3 4z" horiz-adv-x="239.5" />
<glyph glyph-name="tag-1" unicode="&#xe884;" d="m0 20l0 120q0 12 9 21t21 9l142 0q17 0 26-14l37-60q11-16 0-32l-37-60q-9-14-26-14l-142 0q-13 0-21 9t-9 21z m15 0q0-6 4-11t11-4l142 0q9 0 13 7l38 60q5 8 0 16l-38 60q-4 7-13 7l-142 0q-6 0-11-4t-4-11l0-120z m135 60q0 9 7 16t15 6 16-6 7-16-7-16-16-7-15 7-7 16z m7 0q0-6 5-11t10-4 11 4 4 11-4 11-11 4-10-4-5-11z" horiz-adv-x="240.5" />
<glyph glyph-name="thumbs-up-1" unicode="&#xe885;" d="m0-18l0 120q0 10 7 16t15 7l23 0q8 0 15-6 2 2 7 4 30 16 30 54 0 10 7 16t16 7q14 0 25-15t12-36q0-16-2-24 57-2 64-4 10-3 16-10t5-15l0-6q0-9-7-16 5-8 3-18-2-13-10-21 4-8 0-20-4-14-12-19 2-7 0-14-2-4-4-7-8-15-26-15l-42 0q-22 0-44 5-22 5-31 7l0 0q0 1-1 1l-1 0 0 0q-6-13-20-13l-23 0q-9 0-15 7t-7 15z m15 0q0-3 2-5t5-2l23 0q3 0 5 2t2 5l0 120q0 4-2 6t-5 2l-23 0q-3 0-5-2t-2-6l0-120z m7 12q0 4 4 8t8 3 8-3 3-8-3-8-8-4-8 4-4 8z m8 0q0-4 4-4t3 4-3 3-4-3z m30 1q0-6 7-7 5-1 34-8 21-5 41-5l42 0q10 0 13 7 2 3 2 5 2 3 0 7t-7 3l-12 0q-4 0-4 4t4 4l12 0q8 0 12 3t5 4 3 8q5 15-10 15l-15 0q-3 0-3 4t3 3l18 0q14 0 17 16 0 6-2 10t-10 4l-15 0q-4 0-4 4t4 4l15 0q15 0 15 11l0 5q0 9-9 11-11 3-81 3 5 14 6 20t1 19q0 14-8 25t-14 11q-8 0-8-8 0-22-11-41t-34-29q0 0 0-1l-1 0q-6-2-6-8l0-103z" horiz-adv-x="240" />
<glyph glyph-name="pencil" unicode="&#xe886;" d="m0-14q0 1 0 2t0 2 1 2 0 1l0 1 18 64q2 7 7 13l78 77 0 1 1 0 36 37q14 14 35 14 25 0 44-19 18-18 20-41t-14-39l-114-115q-6-6-14-8l-63-17-1 0q0 0-1 0t-2-1-3 0-2 0q-11 0-18 8t-8 18z m15 0q0-4 3-8t8-3q2 0 5 1l28 7q1 14-10 26-11 11-26 10l-7-29q-1-3-1-4z m11 41q16-1 28-13t13-29l27 7 3 2q10 11 8 27t-15 29q-12 12-27 15t-27-6q-2-2-3-5z m31 53q11 0 22-4l71 71q-22 5-35-8z m29-8q9-5 15-11 5-5 10-13l71 72q-3 7-9 13-7 7-16 11z m29-31q4-10 5-20l0-5 58 58 0 1q15 14 8 37z m24 122q26 0 45-19 17-18 18-40l0-5 13 13q11 11 10 27-1 17-15 31-15 15-34 15-15 0-25-10z" horiz-adv-x="240" />
<glyph glyph-name="comment-1" unicode="&#xe887;" d="m0 95q0 37 35 64t85 26 85-26 35-64-35-64-85-26q-11 0-23 2-7-9-21-19t-30-13l-2 0q-3 0-5 2t-2 5q0 1 1 2 0 1 3 6t4 7 4 7 3 8 0 8l0 0q-24 13-38 33t-14 42z m15 0q0-18 12-34t33-27q7-4 7-14l0-1q0-10-5-22 15 9 23 19 5 6 12 6 1 0 2-1 11-1 21-1 44 0 74 22t31 53-31 53-74 22-74-22-31-53z m22 0q0 22 25 37t58 15q4 0 4-3t-4-4q-30 0-53-14t-22-31q0-4-4-4t-4 4z" horiz-adv-x="240" />
<glyph glyph-name="location-1" unicode="&#xe888;" d="m0 110q0 37 26 64t64 26 64-26 26-64q0-19-7-38t-20-40-24-34-27-32q-5-6-12-6l0 0q-8 0-12 6-16 18-27 32t-24 34-20 40-7 38z m15 0q0-17 7-36t20-39 23-30 24-29l1 0q0-1 0-1l1 1q15 17 24 29t23 30 20 39 7 36q0 31-22 53t-53 22-53-22-22-53z m30 2q0 19 13 32t32 13 32-13 13-32-13-32-32-13-32 13-13 32z m7 0q0-16 12-27t26-11 26 11 11 27-11 26-26 11-26-11-12-26z" horiz-adv-x="180" />
<glyph glyph-name="cup" unicode="&#xe889;" d="m0 125l0 22q0 7 4 11t10 4l9 28q4 10 14 10l135 0q11 0 15-10l9-28q6 0 10-4t4-11l0-22q0-6-4-11t-11-4l-8 0 0-1q0 0 0-1l-15-135q0-6-5-9t-10-4l-105 0q-5 0-9 4t-6 9l-15 135q0 1 1 1l0 1-8 0q-6 0-11 4t-4 11z m15 0l180 0 0 22-180 0 0-22z m15 37l150 0-8 23-135 0z m7-52l3-23 130 0 2 23-135 0z m4-30l8-75 112 0 8 75-128 0z m9-83l2-22 105 0 3 22-110 0z" horiz-adv-x="210" />
<glyph glyph-name="trash" unicode="&#xe88a;" d="m0 132l0 17q0 9 7 15t15 6l23 0 0 7q0 10 7 16t15 7l75 0q10 0 16-7t7-16l0-7 22 0q9 0 16-6t7-15l0-17q0-6-4-10t-11-5l0-127q0-13-9-21t-21-9l-120 0q-13 0-21 9t-9 21l0 127q-6 0-11 5t-4 10z m15 0l180 0 0 15q0 4-2 6t-6 2l-165 0q-3 0-5-2t-2-6l0-15z m15-142q0-6 4-11t11-4l120 0q6 0 11 4t4 11l0 127-150 0 0-127z m15 7l0 98q0 3 2 5t5 2l15 0q4 0 6-2t2-5l0-98q0-3-2-5t-6-2l-15 0q-3 0-5 2t-2 5z m7 0l15 0 0 98-15 0 0-98z m8 173l90 0 0 7q0 4-2 6t-6 2l-75 0q-3 0-5-2t-2-6l0-7z m30-173l0 98q0 3 2 5t5 2l15 0q4 0 6-2t2-5l0-98q0-3-2-5t-6-2l-15 0q-3 0-5 2t-2 5z m7 0l15 0 0 98-15 0 0-98z m38 0l0 98q0 3 2 5t5 2l15 0q4 0 6-2t2-5l0-98q0-3-2-5t-6-2l-15 0q-3 0-5 2t-2 5z m7 0l15 0 0 98-15 0 0-98z" horiz-adv-x="210" />
<glyph glyph-name="doc-1" unicode="&#xe88b;" d="m0-10l0 150q0 9 7 16t15 6l8 0 0 15q0 10 7 16t15 7l165 0q10 0 16-7t7-16l0-187q0-13-9-21t-21-9l-180 0q-13 0-21 9t-9 21z m15 0q0-6 4-11t11-4l180 0q6 0 11 4t4 11l0 187q0 4-2 6t-6 2l-165 0q-3 0-5-2t-2-6l0-180q0-3-2-5t-6-2-5 2-2 5l0 150-8 0q-3 0-5-2t-2-5l0-150z m45 4q0 3 4 3l60 0q3 0 3-3t-3-4l-60 0q-4 0-4 4z m0 22q0 4 4 4l60 0q3 0 3-4t-3-4l-60 0q-4 0-4 4z m0 23q0 3 4 3l60 0q3 0 3-3 0-2-1-3t-2-1l-60 0q-4 0-4 4z m0 22q0 4 4 4l142 0q4 0 4-4t-4-4l-142 0q-4 0-4 4z m0 23q0 3 4 3l142 0q4 0 4-3t-4-4l-142 0q-4 0-4 4z m0 26l0 52q0 4 2 6t5 2l53 0q3 0 5-2t2-6l0-52q0-3-2-5t-5-3l-53 0q-3 0-5 3t-2 5z m15 7l37 0 0 38-37 0 0-38z m67-123q0 3 4 3l60 0q4 0 4-3t-4-4l-60 0q-4 0-4 4z m0 22q0 4 4 4l60 0q4 0 4-4t-4-4l-60 0q-4 0-4 4z m0 23q0 3 4 3l60 0q4 0 4-3 0-2-1-3t-3-1l-60 0q-4 0-4 4z m0 67q0 4 4 4l60 0q4 0 4-4t-4-4l-60 0q-4 0-4 4z m0 23q0 3 4 3l60 0q4 0 4-3t-4-4l-60 0q-4 0-4 4z m0 22q0 4 4 4l60 0q4 0 4-4t-4-4l-60 0q-4 0-4 4z" horiz-adv-x="240" />
<glyph glyph-name="key" unicode="&#xe88c;" d="m0-25l0 22q0 5 4 10l91 91q-5 13-5 27 0 31 22 53t53 22 53-22 22-53-22-53-53-22q-14 0-27 5l-18-17 0-18q0-6-4-11t-11-4l-15 0 0-15q0-6-4-11t-11-4l-17 0-11-11q-4-4-10-4l-22 0q-6 0-11 4t-4 11z m15 0l21 0 11 11q4 4 11 4l17 0 0 15q0 6 4 11t11 4l15 0 0 18q0 6 4 10l15 15 8 8 3 2q14-8 30-8 25 0 42 18t18 42-18 42-42 18-42-18-18-42q0-16 8-30l-10-11-88-87 0-22z m135 171q0 1 0 2 6 16 22 22 3 1 6-1 18-13 31-31 1-2 1-4 0-1 0-2-6-16-22-22-3-1-6 1-18 13-31 31-1 2-1 4z m7 0q13-17 29-29 12 5 16 17-11 16-28 28-12-4-17-16z" horiz-adv-x="240" />
<glyph glyph-name="database-1" unicode="&#xe88d;" d="m0 9l0 142q0 24 31 36t74 13 74-13 31-36l0-142q0-24-31-36t-74-13-74 13-31 36z m15 0q0-14 26-24t64-10 64 10 26 24l0 28q-11-12-36-18t-54-7-54 7-36 18l0-28z m0 45q0-14 26-24t64-10 64 10 26 24l0 28q-11-12-36-18t-54-7-54 7-36 18l0-28z m0 45q0-14 26-24t64-10 64 10 26 24l0 26q-14-11-38-17t-52-6-52 6-38 17l0-26z m0 52q0-14 26-24t64-10 64 10 26 24-26 24-64 10-64-10-26-24z m150-146q0 3 2 5t5 2 6-2 2-5-2-5-6-3-5 3-2 5z m0 45q0 3 2 5t5 2 6-2 2-5-2-5-6-3-5 3-2 5z m0 45q0 3 2 5t5 2 6-2 2-5-2-5-6-3-5 3-2 5z" horiz-adv-x="210" />
<glyph glyph-name="megaphone" unicode="&#xe88e;" d="m0 95q0 16 9 27t21 10l69 0q15 0 29 11t23 30l0 0q14 27 36 27 25 0 39-31t14-74-14-74-39-31q-22 0-36 27l0 0q-19 37-48 40-1 0-2 0l0-1q-1 0-2-2-1 0-1-1-1-1-1-3l0-53q0-1 4-6t4-9l0-7q0-6-4-11t-11-4l-30 0q-6 0-11 4t-4 11l0 67q0 7-4 11t-11 4q-13 0-21 11t-9 27z m15 0q0-9 4-16t11-7l52 0q-7 9-7 23t7 22l-52 0q-6 0-11-6t-4-16z m41-38q4-7 4-15l0-67 30 0 0 7 0 0-1 0q-7 8-7 15l0 53q0 4 2 7l-28 0z m26 38q0-9 5-16t10-7l2 0q21 0 39-15-3 18-3 38 0 19 3 37-18-15-39-15l-2 0q-6 0-10-6t-5-16z m68 0q0-11 1-23l21 0q7 0 11 7t4 16-4 16-11 6l-21 0q-1-11-1-22z m3-38q5-23 14-37t20-15q16 0 27 26t11 64-11 64-27 26q-11 0-20-15t-14-38l19 0q13 0 22-10t8-27-8-27-22-11l-19 0z" horiz-adv-x="240" />
<glyph glyph-name="graduation-cap-1" unicode="&#xe88f;" d="m0 140q0 8 5 14t12 8l98 23q3 0 5 0t5 0l98-23q7-2 12-8t5-14-5-14-12-8l-21-5 0-63q0-16-20-27t-62-11-62 11-21 27l0 63-20 5q-7 2-12 8t-5 14z m15 0q0-6 6-8l97-22 4 0 97 22q6 2 6 8t-6 7l-97 23-4 0-97-23q-6-1-6-7z m37-90q0-5 8-10t23-9 37-4 37 4 23 9 7 10l0 60-62-15q-3 0-5 0t-5 0l-63 15 0-60z m158-60q0 7 5 19t10 11 10-11 5-19q0-6-4-11t-11-4-11 4-4 11z m7 45l0 67q0 4 3 6t5 2 5-2 2-6l0-67q0-3-2-5t-5-3-5 3-3 5z" horiz-adv-x="240" />
<glyph glyph-name="fire" unicode="&#xe890;" d="m0 28q0 19 4 41t8 37 3 41-8 53l5-3q5-4 12-11t16-16 15-24 12-28q15 22 15 44l8-8q7-8 15-25t7-34l4 5q4 5 8 14t3 18q23-28 33-60t2-60q-3-12-7-20t-14-16-25-12-41-4q-33 0-54 20t-21 48z m15 0q0-21 17-37t43-16q18 0 31 3t20 6 12 10 6 10 4 12q9 38-16 83-14-25-35-42 0 23-2 43t-6 27q-6-14-27-45 0 2-3 13t-10 29-19 33q2-30-8-75-7-34-7-54z m12-5q0 35 10 63l4 11 4-10q4-13 15-39 5 7 12 18l11 18 0-13q0-16 6-32 9 4 16 10t11 8 8 10l7 7 1-8q5-28-5-52 0-2-3-2-1 0-1 0-3 1-2 5 6 17 5 40-14-16-37-27l-4-2-2 4q-5 16-6 27-8-11-14-20l-4-5-3 5q-10 24-15 36-6-20-6-52 0-4-4-4t-4 4z" horiz-adv-x="165.1" />
<glyph glyph-name="cd" unicode="&#xe891;" d="m1 62q-4 31 7 63 12 30 38 50t56 24 62-7q31-13 51-38t24-56-8-63q-12-30-37-50t-56-24-63 7q-30 13-50 38t-24 56z m21 57q-16-40 1-80t58-57 80 2 56 57-1 80-57 56-81-1-56-57z m14-6q14 35 48 49 4 2 5-1t-2-5q-31-14-44-46-1-3-5-1t-2 4z m14-5q12 29 40 41 3 1 5-2t-2-5q-25-11-36-37-1-3-5-2t-2 5z m14-6q9 23 32 33l0 0q4 2 5-2t-2-5q-20-8-28-28-1-4-5-3t-2 5z m14-5q7 17 24 24t35 1 24-24 0-35-24-24-34-1-25 24 0 35z m14-6q-5-11 0-23t17-16 23 1 16 16-1 23-16 16-23-1-16-16z m14-5q2 5 8 8t11 0 9-8 0-12-8-8-12 0-8 8 0 12z m7-9q1-3 4-4t6 0 4 4 0 6-4 4-6 0-4-4 0-6z m25-50q-1 3 2 5 21 8 28 28 2 4 5 3t3-6q-10-22-32-32l-1 0q-3-2-5 2z m6-14q-1 3 2 5 26 11 37 37 1 3 4 2t3-5q-12-29-41-41-3-1-5 2z m6-14q-1 4 2 5 31 14 44 46 2 3 5 1t2-4q-13-35-48-50l0 0q-3-1-5 2z" horiz-adv-x="239.5" />
<glyph glyph-name="cloud" unicode="&#xe892;" d="m0 39q0 13 7 24t17 18q-2 5-2 10 0 14 10 24t24 10q5 0 11-2 8 18 24 29t36 10q27 0 46-17t22-43q19-4 32-20t13-36q0-23-16-40t-40-16l-135 0q-20 0-35 14t-14 35z m15 0q0-14 10-24t24-10l135 0q17 0 29 12t12 29q0 15-9 26t-24 15q-9 1-10 3t-2 10q-2 20-17 34t-36 13q-15 0-28-8t-19-22q-2-5-3-6t-2-3-3-1-5 1q-6 2-11 2-8 0-13-5t-6-14q0-2 1-5 4-8 3-11t-9-7q-17-10-17-29z" horiz-adv-x="240" />
<glyph glyph-name="globe-1" unicode="&#xe893;" d="m0 84q0 48 34 82t82 34 83-34 33-82-33-83-83-34-82 34-34 83z m15-4q2-40 30-68 13 9 26 15-10 25-11 53l-45 0z m0 7l45 0q1 25 9 47-15 6-28 17-25-27-26-64z m31 69q12-9 26-15 10 25 28 43-32-6-54-28z m5-149q21-18 49-23-16 15-25 36-13-5-24-13z m16 73q1-27 11-51 17 5 34 6l0 45-45 0z m0 7l45 0 0 38q-18 1-36 7-8-21-9-45z m12 52q16-6 33-7l0 53 0 0q-22-18-33-46z m3-117q11-24 30-40l0 0 0 45q-16 0-30-5z m38-40l0 0q19 16 31 40-15 5-31 5l0-45z m0 53q18-1 34-6 10 24 11 51l-45 0 0-45z m0 52l45 0q-1 24-8 45-18-6-37-7l0-38z m0 45q17 1 34 7-12 28-34 46l0 0 0-53z m13-148q28 5 49 23-11 8-24 13-10-21-25-36z m0 200q17-18 28-43 13 6 26 15-23 22-54 28z m28-157q14-6 26-15 29 28 30 68l-45 0q0-28-11-53z m3 107q8-22 8-47l45 0q-1 37-25 64-13-11-28-17z" horiz-adv-x="232.6" />
<glyph glyph-name="inbox" unicode="&#xe894;" d="m0 5l0 52q0 2 0 5l30 112q2 5 6 8t9 3l150 0q5 0 9-3t6-8l30-112q0-3 0-5l0-52q0-13-9-21t-21-9l-180 0q-13 0-21 9t-9 21z m15 0q0-6 4-11t11-4l180 0q6 0 11 4t4 11l0 52-30 113-150 0-30-113 0-52z m14 54l26 90q1 6 7 6l116 0q6 0 7-6l26-90q1-3-1-6t-6-3l-34 0-11-22q-4-8-14-8l-50 0q-10 0-14 8l-11 22-34 0q-4 0-6 3t-1 6z m11 6l30 0q10 0 14-8l11-22 50 0 11 22q4 8 14 8l30 0-22 82-116 0z" horiz-adv-x="240" />
<glyph glyph-name="mobile" unicode="&#xe895;" d="m0-18l0 195q0 10 7 16t15 7l120 0q10 0 16-7t7-16l0-195q0-9-7-15t-16-7l-120 0q-9 0-15 7t-7 15z m15 0q0-3 2-5t5-2l120 0q4 0 6 2t2 5l0 15-135 0 0-15z m0 23l135 0 0 150-135 0 0-150z m0 157l135 0 0 15q0 4-2 6t-6 2l-120 0q-3 0-5-2t-2-6l0-15z m52 12q0 3 4 3l23 0q3 0 3-3t-3-4l-23 0q-4 0-4 4z m8-188q0 4 4 4l7 0q4 0 4-4t-4-4l-7 0q-4 0-4 4z" horiz-adv-x="164.9" />
<glyph glyph-name="desktop" unicode="&#xe896;" d="m0 20l0 150q0 9 7 16t15 6l195 0q10 0 16-6t7-16l0-150q0-9-7-16t-16-7l-75 0 0-8 47-7q6-1 6-7 0-3-2-5t-6-3l-135 0q-3 0-5 3t-2 5q0 6 6 7l46 7 0 8-75 0q-9 0-15 7t-7 16z m15 0q0-3 2-5t5-3l195 0q4 0 6 3t2 5l0 150q0 3-2 5t-6 2l-195 0q-3 0-5-2t-2-5l0-150z m15 30l0 105q0 3 2 5t5 2l165 0q4 0 6-2t2-5l0-105q0-3-2-5t-6-3l-165 0q-3 0-5 3t-2 5z m7 0l165 0 0 105-165 0 0-105z" horiz-adv-x="240" />
<glyph glyph-name="lightbulb" unicode="&#xe897;" d="m0 117q0 35 24 59t58 24 59-24 24-59q0-13-7-29t-17-33-14-28q-3-9-7-23t-6-19-6-13-10-9-16-3-15 3-10 9-6 13-6 19-8 23q-3 10-13 28t-17 33-7 29z m15 0q0-15 20-51 9-15 12-24l71 0q3 9 12 24 20 36 20 51 0 29-20 48t-48 20-47-20-20-48z m22 0q0 19 14 32t31 13q4 0 4-3t-4-4q-15 0-26-11t-11-27q0-3-4-3t-4 3z m16-90q3-7 5-14l51 7q1 2 3 7l-59 0z m7-21q3-9 5-15l37 5q1 4 3 9 0 1 1 4t0 3z m7-22q3-6 6-7t9-2q8 0 11 2t6 11z" horiz-adv-x="164.9" />
<glyph glyph-name="sound" unicode="&#xe898;" d="m0 35q0 9 7 16l23 23 0 103q0 8 4 13t10 8q4 2 8 2 10 0 16-7l165-165q11-10 5-24-2-7-8-10t-13-4l-103 0-23-23q-7-7-16-7t-16 7l-52 52q-7 7-7 16z m15 0q0-3 2-5l53-53q2-2 5-2t5 2l24 24 0 0-63 63 0 0-24-24q-2-2-2-5z m30 36l66-66q3 0 3 0l91 0-160 160 0-91q0 0 0-3z m0 104l170-170 2 0q6 0 8 5t-2 8l-165 165q-2 2-6 2-1 0-2 0-5-2-5-8l0-2z m82 17q0 4 3 6t5 2q44 0 74-31t31-74q0-3-2-5t-6-3-5 3-2 5q0 37-26 64t-64 26q-3 0-5 2t-3 5z m4-26q0 4 4 4 31 0 53-22t22-53q0-4-4-4t-4 4q0 28-19 48t-48 19q-4 0-4 4z" horiz-adv-x="240.2" />
<glyph glyph-name="clock-1" unicode="&#xe899;" d="m0 80q0 29 21 51l10 57q1 5 5 8t10 4l60 0q5 0 9-4t5-8l11-59q14-15 18-34l0 0q1 0 1 0 6 0 11-4t4-11-4-11-11-4q0 0-1 0l0 0q-5-20-19-35l-10-58q-1-5-5-8t-10-4l-60 0q-6 0-10 4t-5 8l-10 58q-20 21-20 50z m15 0q0-25 18-42t42-18 42 18 18 42-18 42-42 18-42-18-18-42z m7 0q0 3 3 5t5 2 5-2 2-5-2-5-5-3-5 3-3 5z m14-32q0 3 2 6t5 2 6-2 2-6-2-5-6-2-5 2-2 5z m0 64q0 3 2 5t5 2 6-2 2-5-2-6-6-2-5 2-2 6z m1-97l8-40 60 0 7 40q-17-10-37-10t-38 10z m1 130q18 10 38 10t37-10l-7 40-60 0z m29-110q0 3 3 5t5 2 5-2 2-5-2-5-5-3-5 3-3 5z m0 45q0 3 3 5l39 32q2 2 3 0t0-3l-18-23-14-17q-2-2-5-2t-5 3-3 5z m0 45q0 3 3 5t5 2 5-2 2-5-2-5-5-3-5 3-3 5z m32-77q0 3 2 6t6 2 5-2 2-6q0-3-2-5t-5-2-6 2-2 5z m13 32q0 3 3 5t5 2 5-2 2-5-2-5-5-3-5 3-3 5z" horiz-adv-x="164.9" />
<glyph glyph-name="calendar-2" unicode="&#xe89a;" d="m0-20l0 177q0 9 6 15t14 5l32 0 0 15q0 4 3 6t5 2 5-2 2-6l0-15 45 0 0 15q0 4 3 6t5 2 5-2 2-6l0-15 45 0 0 15q0 4 3 6t5 2 5-2 2-6l0-15 33 0q8 0 14-5t6-15l0-177q0-8-6-14t-14-6l-200 0q-8 0-14 6t-6 14z m15 0q0-2 1-4t4-1l200 0q2 0 4 1t1 4l0 177q0 3-1 4t-4 1l-33 0 0-15q0-3-2-5t-5-2-5 2-3 5l0 15-45 0 0-15q0-3-2-5t-5-2-5 2-3 5l0 15-45 0 0-15q0-3-2-5t-5-2-5 2-3 5l0 15-32 0q-2 0-4-1t-1-4l0-177z m37 32l0 23 30 0 0-23-30 0z m0 38l0 22 30 0 0-22-30 0z m0 37l0 23 30 0 0-23-30 0z m53-75l0 23 30 0 0-23-30 0z m0 38l0 22 30 0 0-22-30 0z m0 37l0 23 30 0 0-23-30 0z m52-75l0 23 30 0 0-23-30 0z m0 38l0 22 30 0 0-22-30 0z m0 37l0 23 30 0 0-23-30 0z" horiz-adv-x="240" />
<glyph glyph-name="params" unicode="&#xe89b;" d="m0 125q0 18 15 30l0 22q0 10 7 16t15 7 16-7 7-16l0-22q15-12 15-30t-15-30l0-113q0-9-7-15t-16-7-15 7-7 15l0 113q-15 12-15 30z m15 0q0-3 1-6l0-2q1-3 3-5 2-3 5-5t6-3q4-2 7-2t8 2q3 1 6 3 3 2 5 5 2 2 3 5l0 2q1 3 1 6t-1 6q0 1 0 1-1 4-3 6-2 3-5 5t-6 3q-4 1-8 1t-7-1q-3-1-6-3-2-2-5-5-2-2-3-6l0-1q-1-3-1-6z m15-143q0-3 2-5t5-2 6 2 2 5l0 106q-4-1-8-1t-7 1l0-106z m0 180q4 0 7 0t8 0l0 15q0 4-2 6t-6 2-5-2-2-6l0-15z m52-127q0 18 15 30l0 112q0 10 7 16t16 7 16-7 6-16l0-112q15-12 15-30t-15-30l0-23q0-9-6-15t-16-7-16 7-7 15l0 23q-15 12-15 30z m15 0q0-3 1-6l1-2q1-3 3-5 2-3 4-5t6-3q4-2 8-2t7 2q4 1 7 3 2 2 4 5 2 2 3 5 0 1 1 2 0 3 0 6t0 6l-1 1q-1 4-3 6-2 3-4 5-3 2-7 3-3 1-7 1t-8-1q-3-1-6-3-2-2-4-5-2-2-3-6l-1-1q-1-3-1-6z m15-53q0-3 3-5t5-2 5 2 2 5l0 16q-3-1-7-1t-8 1l0-16z m0 90q4 0 8 0t7 0l0 105q0 4-2 6t-5 2-5-2-3-6l0-105z m53 53q0 18 15 30l0 22q0 10 7 16t15 7 16-7 7-16l0-22q15-12 15-30t-15-30l0-113q0-9-7-15t-16-7-15 7-7 15l0 113q-15 12-15 30z m15 0q0-3 1-6l0-2q1-3 3-5 2-3 5-5t6-3q4-2 7-2t8 2q3 1 6 3 3 2 5 5 2 2 3 5 0 1 0 2 1 3 1 6t-1 6l0 1q-1 4-3 6-2 3-5 5-3 2-6 3-4 1-8 1t-7-1q-3-1-6-3-3-2-5-5-2-2-3-6l0-1q-1-3-1-6z m15-143q0-3 2-5t5-2 6 2 2 5l0 106q-4-1-8-1t-7 1l0-106z m0 180q4 0 7 0t8 0l0 15q0 4-2 6t-6 2-5-2-2-6l0-15z" horiz-adv-x="240" />
<glyph glyph-name="note" unicode="&#xe89c;" d="m0-10l0 180q0 9 7 16t15 6l158 0q6 0 11-4l45-45q4-4 4-11l0-142q0-9-7-16t-16-7l-195 0q-9 0-15 7t-7 16z m15 0q0-3 2-5t5-3l195 0q4 0 6 3t2 5l0 135-30 0q-9 0-16 7t-7 15l0 30-150 0q-3 0-5-2t-2-5l0-180z m15 19q0 3 4 3l172 0q4 0 4-3t-4-4l-172 0q-4 0-4 4z m0 22q0 4 4 4l172 0q4 0 4-4t-4-4l-172 0q-4 0-4 4z m0 23q0 3 4 3l172 0q4 0 4-3t-4-4l-172 0q-4 0-4 4z m0 22q0 4 4 4l172 0q4 0 4-4t-4-4l-172 0q-4 0-4 4z m0 26l0 45q0 4 2 6t5 2l53 0q3 0 5-2t2-6l0-45q0-3-2-5t-5-2l-53 0q-3 0-5 2t-2 5z m15 8l37 0 0 30-37 0 0-30z m67-11q0 3 4 3l90 0q4 0 4-3t-4-4l-90 0q-4 0-4 4z m0 22q0 4 4 4l38 0q3 0 3-4t-3-4l-38 0q-4 0-4 4z m0 23q0 3 4 3l38 0q3 0 3-3t-3-4l-38 0q-4 0-4 4z m68 3q0-6 4-10t11-5l30 0-45 45 0-30z" horiz-adv-x="240" />
<glyph glyph-name="cog-1" unicode="&#xe89d;" d="m0 70l0 20q0 5 4 10t8 5l23 5q2 4 4 9l-13 20q-3 4-2 10t4 9l14 14q5 5 11 5 5 0 8-3l20-13q5 2 9 4l5 23q1 5 5 8t10 4l20 0q5 0 10-4t5-8l5-23q4-2 9-4l20 13q3 3 8 3 6 0 11-5l14-14q4-4 5-9t-3-10l-13-20q2-5 4-9l23-5q5-1 8-5t4-10l0-20q0-5-4-10t-8-5l-23-5q-2-4-4-9l13-20q3-4 3-10t-5-9l-14-14q-5-5-11-5-5 0-8 3l-20 13q-5-2-9-4l-5-23q-1-5-5-8t-10-4l-20 0q-5 0-10 3t-5 9l-5 23q-4 2-9 4l-20-13q-3-3-8-3-6 0-11 5l-14 14q-4 4-4 9t2 10l13 20q-2 5-4 9l-23 5q-5 1-8 5t-4 10z m15 0l23-5q8-1 11-9 2-5 3-9 4-7 0-14l-14-20 15-15 20 14q3 2 8 2 3 0 6-2 4-1 9-3 8-3 9-11l5-23 20 0 5 23q1 8 9 11 5 2 9 3 3 2 6 2 5 0 8-2l20-14 15 15-14 20q-4 7-1 14 2 4 4 9 3 8 11 9l23 5 0 20-23 5q-8 1-11 9-2 5-4 9-3 7 1 14l14 20-15 15-20-14q-3-2-8-2-3 0-6 1-4 2-9 4-8 3-9 11l-5 23-20 0-5-23q-1-8-9-11-5-2-9-4-3-1-6-1-5 0-8 2l-20 14-15-15 14-20q4-7 0-14-1-4-3-9-3-8-11-9l-23-5 0-20z m52 10q0 22 16 37t37 15 37-15 15-37-15-37-37-16-37 16-16 37z m7 0q0-19 13-33t33-13 33 13 13 33-13 33-33 13-33-13-13-33z m16 0q0 13 9 21t21 9 21-9 9-21-9-21-21-9-21 9-9 21z m7 0q0-9 7-16t16-7 16 7 6 16-6 16-16 6-16-6-7-16z" horiz-adv-x="240" />
<glyph glyph-name="beaker" unicode="&#xe89e;" d="m1 81q2 12 13 16l101 41q-2 5-2 10 0 8 5 14l10 10q6 5 14 5t13-5l58-58q5-5 5-13t-5-14l-10-10q-6-5-14-5-5 0-10 2l-40-100q-4-11-17-14-1 0-4 0l-1 0q-9 0-15 7l-95 94q-9 8-6 20z m14-3q0-4 2-6l96-95q2-2 5-2l2 0q3 1 5 5l35 89q-14 14-29 20t-35 8-30 5l-46-18q-4-2-5-6z m45-6q0 7 4 11t11 4 11-4 4-11-4-10-11-5-11 5-4 10z m8 0q0-3 2-5t5-2 5 2 3 5-3 6-5 2-5-2-2-6z m10 35q7-1 19-3 14-2 22-3t21-8 24-17l9 25 14-14q2-2 5 0l11 11q2 3 0 5l-59 59q-2 2-5 0l-11-11q-2-3 0-5l14-14z m12-80q0 4 2 6t6 2 5-2 2-6-2-5-5-2-6 2-2 5z m15 34q0 8 5 14t14 5 13-5 6-14-6-13-13-6-14 6-5 13z m8 0q0-4 3-8t8-3 8 3 3 8-3 8-8 3-8-3-3-8z m90 120q0 8 5 14t13 5 14-5 5-14-5-13-14-6-13 6-5 13z m7-41q0 3 2 5t6 2 5-2 2-5-2-5-5-3-6 3-2 5z m0 41q0-4 3-8t8-3 8 3 4 8-4 8-8 3-8-3-3-8z" horiz-adv-x="240" />
<glyph glyph-name="money-1" unicode="&#xe89f;" d="m1 54q7 24 25 42 14 14 49 35 31 17 43 29 13 13 18 29 1 4 3 7 4 3 7 4 9 1 15-4l75-75q6-7 4-15-8-24-26-42-14-14-49-35-31-17-42-29-14-13-18-29-2-4-4-7-3-3-7-4-9-1-15 4l-75 75q-6 7-3 15z m14-4l24-24 28-27 23-24q6 19 20 34t31 24l33 19t31 24 20 34l-38 38-37 37q-5-19-20-34t-31-24l-33-19t-31-24-20-34z m66-48l5 7q5 7 11 13 5 5 13 12 3 2 5 0 3-3 0-6l0 0q-7-6-13-11-5-6-10-12l-5-7q0 0 0-1-3-2-6 0-2 3 0 5z m6 86q1 5 3 8 2 5 4 8 0 0-1 1-1 1-1 2t1 2 2 1 2 0q1-1 2-2 1 2 5 4t6 3 7 0 6-4q2-1 2-4t-2-4q-1-1-4-1-1 1-4 1-2 1-5 1t-5-2q4-5 12-14 3 2 7 3 4 2 8 2t7-1 8-4q3-2 5-6 1-3 0-7 0-3-2-8-2-4-5-9 1-1 3-3 1 0 1-1t0-3-2-1-2 1q-3 2-4 4-4-5-9-6-3-1-8-1-3 0-6 2t-5 3-2 4 2 4 3 2 3-1 3-2 3-2 4 0 5 3q-5 5-13 15-8-4-16-4-7-1-12 3-3 3-5 6t-1 7z m10 3q0-2 1-3t2-3q2-2 5-2t8 3q-7 7-12 12-1-2-2-4t-2-3z m27 34q-2 3 0 6 1 0 1 0 8 6 13 11 6 6 10 12l5 7q0 1 1 1 3 2 5 0 2-3 1-6l-6-7q-5-6-11-12-5-6-13-12-3-2-6 0z m1-46q8-9 13-14 1 1 2 3t2 4 0 4-2 3-4 2-4 0-3-1q-1 0-4-1z" horiz-adv-x="240.2" />
<glyph glyph-name="food" unicode="&#xe8a0;" d="m0 24q0 8 5 13t14 5l20 0q5 30 28 49t53 19q24 0 45-13t30-35l34 17q3 1 6 1t4-4 1-6-4-4l-36-18q1-3 1-6l20 0q8 0 14-5t5-13q0-6-4-10l-26-30 0-5q0-8-5-14t-14-5l-142 0q-8 0-14 5t-5 14l0 5-26 30q-4 4-4 10z m15 0l30-34 0-11q0-4 4-4l142 0q4 0 4 4l0 11 30 34q0 3-4 3l-202 0q-4 0-4-3z m31 18l8 0q6 23 24 38t42 15q20 0 37-11t24-29l7 4q-9 20-27 32t-41 11q-27 0-48-17t-26-43z m14 70q-4 10 3 28 6 14 4 21l-1 0 0 1q0 4 4 4 2 0 3-2 4-10-3-27-6-15-3-22l0-1q0-4-4-4-2 0-3 2l0 0 0 0z m2-70l8 0q5 17 18 27t32 11q16 0 29-9t19-22l7 3q-8 16-22 26t-33 9q-21 0-37-12t-21-33z m16 0l8 0q4 11 13 17t21 6 21-6 13-17l2 0 5 3q-5 12-16 20t-25 7q-15 0-26-8t-16-22z m16 0l9 0q7 8 17 8t16-8l10 0q-9 15-26 15t-26-15z m18 104l0 0q-3 9 4 27 6 15 3 22l0 1q0 4 3 4 3 0 4-2 4-10-3-28-6-15-3-22 0 0 0-1 0-3-4-3-2 0-4 2z m39-33l0 1q-4 9 4 26 6 15 2 22l0 1q0 4 4 4 3 0 4-2 4-10-4-27-6-15-3-22l0 0q0-1 0-1 0-4-3-4-3 0-4 2l0 0z m38-71l5 0q0 1-1 1t0 1z" horiz-adv-x="240" />
<glyph glyph-name="shop" unicode="&#xe8a1;" d="m0 95l0 7q0 8 5 14l22 30q1 1 3 3l0 36q0 6 4 11t11 4l150 0q6 0 11-4t4-11l0-36q2-2 3-3l22-30q5-6 5-14l0-7q0-9-7-16t-16-7l0-97q0-6-4-11t-11-4l-165 0q-6 0-10 4t-5 11l0 97q-9 0-15 7t-7 16z m15 0q0-3 2-5t5-3l15 0 30 53-22 0q-4 0-6-3l-23-30q-1-2-1-5l0-7z m22-120l49 0 0 75q0 3 2 5t6 2l56 0q3 0 5-2t2-5l0-75 45 0 0 97-165 0 0-97z m8 112l31 0 15 53-16 0z m0 68l150 0 0 30-150 0 0-30z m39-68l32 0 0 53-17 0z m10-112l56 0 0 75-56 0 0-75z m30 112l32 0-15 53-17 0 0-53z m25 53l15-53 31 0-30 53-16 0z m24 0l30-53 14 0q4 0 6 3t2 5l0 7q0 3-1 5l-23 30q-2 3-6 3l-22 0z" horiz-adv-x="240" />
<glyph glyph-name="t-shirt" unicode="&#xe8a2;" d="m1 135q-3 10 5 17l37 30q4 3 10 3l135 0q5 0 9-3l37-30q8-7 5-17l-15-45q-2-7-9-9-3-1-5-1-4 0-7 2l0-92q0-6-5-11t-10-4l-135 0q-7 0-11 4t-4 11l0 92q-4-2-8-2-2 0-5 1-7 2-9 9z m14 5l15-45 23 15 0-120 135 0 0 120 22-15 15 45-37 30-32 0q-3-10-13-16t-23-7-23 7-13 16l-31 0z m77 30q3-7 11-11t17-4 17 4 11 11l-56 0z" horiz-adv-x="240" />
<glyph glyph-name="diamond" unicode="&#xe8a3;" d="m0 117q0 6 4 10l39 38q4 5 10 5l134 0q6 0 10-5l39-38q4-4 4-10 0-6-4-10l-105-112q-4-5-11-5t-11 5l-105 112q-4 4-4 10z m15 0l32 0 20 21-17 14z m7-7l73-79-47 79-26 0z m35 0l55-92-18 92-37 0z m1 7l34 0-19 16z m0 38l15-12 12 12-27 0z m20-17l19-16 17 14-20 17z m23-28l19-93 19 93-38 0z m2 7l34 0-17 14z m0 38l17-14 16 14-33 0z m23-19l16-14 20 16-16 15z m2-118l55 92-37 0z m17 13l73 79-26 0z m3 86l34 0-15 16z m7 38l12-12 15 12-27 0z m17-17l21-21 32 0-35 35z" horiz-adv-x="240" />
<glyph glyph-name="signal" unicode="&#xe8a4;" d="m53-40h-53v80h53v-80z m89 0h-53v160h53v-160z m36 0v240h53v-240h-53z" horiz-adv-x="231.1" />
<glyph glyph-name="down-circled2" unicode="&#xe8a5;" d="m150 76q0-2-1-4l-43-42q-2-1-3-1t-3 1l-43 43q-2 2-1 4 1 3 4 3h26v47q0 2 1 3t3 1h26q2 0 3-1t1-3v-47h26q2 0 3-1t1-3z m-47 77q-20 0-37-10t-26-26-10-37 10-37 26-26 37-10 36 10 27 26 10 37-10 37-27 26-36 10z m103-73q0-28-14-52t-38-37-51-14-52 14-37 37-14 52 14 52 37 37 52 14 51-14 38-37 14-52z" horiz-adv-x="205.7" />
<glyph glyph-name="download-alt" unicode="&#xe8a6;" d="m0-40l0 32 240 0 0-32-240 0z m21 141l55 0 0 99 89 0 0-99 54 0-99-93z" horiz-adv-x="240" />
<glyph glyph-name="business_piggy" unicode="&#xe8a7;" d="m160 160h-70v-10h70v10z m-111-40c-5 0-9-5-9-10s9-14 9-8c1 8 2 13 9 9 8-5 2 9-9 9z m186-41c0 0 1-1 2-1 1-1 3-2 3-2l-1-15c-4 0-8 2-11 4-2 1-3 2-4 4-3-20-13-41-30-51v-28h-46v18h-46v-18h-47v28c-13 5-26 16-32 28h-7c-9 0-16 7-16 16v29c0 9 7 16 16 16h4c2 6 4 13 7 18l6 36c2 9 9 12 17 8l14-8c16 9 37 14 61 14 58 0 88-27 96-68 1 0 2 0 3 0 4 0 7-2 10-4 2-2 3-5 4-9 0-2 1-3 1-5 0-2-1-4-2-6 0-1-1-3-2-4z" horiz-adv-x="240" />
<glyph glyph-name="business_safe" unicode="&#xe8a8;" d="m156 69c10 0 18 8 18 18s-8 18-18 18-18-8-18-18 8-18 18-18z m44 12h-8c-1-8-4-11-7-15l6-7-9-9-6 6c-4-2-10-4-14-5v-8h-11v8c-8 1-11 3-15 6l-7-5-9 9 6 5c-2 5-4 11-5 15h-8v11h8c1 8 3 11 6 15l-5 6 9 9 5-5c4 3 11 5 15 6v7h11v-8c8-1 11-3 15-6l6 5 9-9-5-5c3-5 4-11 5-15h8v-11z m-150 79c-8 0-20-13-20-20v-102c0-7 12-18 20-18h140c8 0 20 13 20 20v100c0 7-12 20-20 20h-140z m0-30h40v-20h-40v20z m0-30h20v-10h-20v10z m30 0h10v-10h-10v10z m-30-20h20v-10h-20v10z m30 0h10v-10h-10v10z m-30-20h20v-10h-20v10z m30 0h10v-10h-10v10z m-58 129c-12 0-22-10-22-22v-152c0-12 10-25 22-25h18v-19h50v19h70v-19h50v19h8c12 0 22 13 22 25v152c0 12-10 22-22 22 0 0-196 0-196 0z m18-19h160c10 0 20-10 20-20v-120c0-10-10-20-20-20h-160c-10 0-20 10-20 20v120c0 10 10 20 20 20z" horiz-adv-x="240" />
<glyph glyph-name="business_vallet" unicode="&#xe8a9;" d="m0 150v-140c0-19 11-30 30-30h160c19 0 30 9 30 28v22h2c11 0 18 9 18 20v20c0 10-6 20-16 20h-86c-15 0-27-16-27-31v-1c0-2 0-5 1-7-7 5-10 13-10 21 0 16 12 28 27 28h81c3 0 8 0 10-1v53c0 19-11 28-30 28h-160c-19 0-30-11-30-30z m20 0c0 5 5 10 10 10h160c5 0 10-5 10-10s-5-10-10-10h-160c-5 0-10 5-10 10z m109-101c0 8 6 14 14 14 8 0 14-6 14-14 0-7-6-14-14-14-8 0-14 7-14 14z" horiz-adv-x="240" />
<glyph glyph-name="data_key" unicode="&#xe8aa;" d="m214 51l-14 15-14-15-13 15-14-15-16 15-15-16h-23c-9-18-28-30-49-30-31 0-56 23-56 56 0 33 25 64 56 64 21 0 39-12 49-30h114l19-20c3-3 3-11 0-13l-24-26 0 0z m-182 10c8 0 15 7 15 16 0 9-7 16-15 16-9 0-15-7-15-16 0-9 6-16 15-16z" horiz-adv-x="240" />
<glyph glyph-name="info_calculator" unicode="&#xe8ab;" d="m200 110h-160v60h160v-60z m0-30h-30v20h30v-20z m0-30h-30v20h30v-20z m0-60h-30v50h30v-50z m-48 90h-32v20h32v-20z m-2-30h-30v20h30v-20z m0-30h-30v20h30v-20z m0-30h-30v20h30v-20z m-40 90h-30v20h30v-20z m0-30h-30v20h30v-20z m0-30h-30v20h30v-20z m0-30h-30v20h30v-20z m-40 90h-30v20h30v-20z m0-30h-30v20h30v-20z m0-30h-30v20h30v-20z m0-30h-30v20h30v-20z m-50 180c0-10 0-170 0-180s10-20 20-20 160 0 160 0c10 0 20 10 20 20s0 170 0 180-10 20-20 20-150 0-160 0-20-10-20-20z" horiz-adv-x="240" />
<glyph glyph-name="livestyle_car" unicode="&#xe8ac;" d="m60 25v-22c0-11-10-18-20-18-11 0-20 8-20 19v21h-20v59 1c0 13 9 25 22 28l22 49c3 8 7 13 16 13h120c9 0 13-5 16-11l22-49c13-5 22-17 22-30v0-60h-20v-22c0-11-10-18-20-18-10 0-20 8-20 19v21h-120z m-21 32c11 0 19 9 19 19 0 11-8 19-19 19-10 0-19-8-19-19 0-10 9-19 19-19z m180 19c0 11-9 19-20 19s-19-8-19-19c0-11 9-19 19-19 11 0 20 9 20 19z m-19 39l-20 36c-1 2-3 4-6 4h-108c-3 0-5-2-6-4l-20-36h160z" horiz-adv-x="240" />
<glyph glyph-name="livestyle_car2" unicode="&#xe8ad;" d="m154 58c10 0 17-8 17-17s-7-17-17-17c-9 0-17 7-17 17s8 17 17 17z m-85-2c9 0 17-7 17-17s-8-17-17-17-17 8-17 17c0 10 7 17 17 17z m91 72h-50v-30h60l-10 30z m-100 0l-10-30h50v30h-40z m180-90h-60c0 14-11 27-26 27-14 0-25-13-25-27h-35c0 14-11 27-25 27s-26-13-26-27h-43v43c0 0-3 17 17 17h13l22 40h111l28-40c0 0-9 0 9 0 41 0 40-60 40-60z" horiz-adv-x="240" />
<glyph glyph-name="livestyle_house" unicode="&#xe8ae;" d="m180 40h-30v40h30v-40z m-90 0h-30v40h30v-40z m130 50v-80h-20v80h-160v-80h-20v80h-20l60 60h120l60-60h-20z" horiz-adv-x="240" />
<glyph glyph-name="livestyle_map" unicode="&#xe8af;" d="m70 7v183l-70-37v-183l70 37z m90-37v183l-80 37v-183l80-37z m80 37v183l-70-37v-183l70 37z" horiz-adv-x="240" />
<glyph glyph-name="livestyle_suitcase" unicode="&#xe8b0;" d="m153 163h-67v-13h67v13z m-3-53h-60v-20h-90v44c0 9 7 16 16 16l54 0v21c0 6 3 9 9 9h82c6 0 9-3 9-9v-21l54 0c9 0 16-7 16-16v-44h-90v20z m-50-60v50h40v-50h-40z m124-70h-208c-9 0-16 7-16 16v84h90v-40h60v40h90v-84c0-9-7-16-16-16z" horiz-adv-x="240" />
<glyph glyph-name="business_coins" unicode="&#xe8b1;" d="m104 14v-11c0-3 1-6 3-8v0c-11-4-28-7-46-7-19 0-35 3-46 7-6 1-10 4-12 6-2 1-2 1-3 2 0 0 0 1 0 1v16c14-7 36-11 61-11 16 0 31 2 43 5z m0 33l0-10 0 0v-8c-11-4-26-6-43-6-19 0-35 2-46 6-6 2-10 4-12 6-2 1-2 2-3 2 0 1 0 1 0 1v15c14-7 36-11 61-11 16 0 31 2 43 5z m0 28l0-10 0 0v-9c-11-3-26-5-43-5-19 0-35 2-46 6-6 2-10 4-12 6-2 1-2 2-3 2 0 1 0 1 0 1v15c14-7 36-11 61-11 16 0 31 2 43 5z m5 34c-1-1-1-2-2-3-2-3-3-5-3-8v-8c-11-4-26-6-43-6-19 0-35 2-46 6-6 2-10 4-12 6-2 1-2 2-3 3 0 0 0 0 0 0v15c14-8 36-11 61-12 18 0 35 3 48 7z m6 52c-10-6-31-10-54-10-19 0-35 2-46 6-6 2-10 4-12 6-2 1-2 2-3 2 0 1 0 1 0 1 0 0 0 1 0 1 1 1 3 3 6 5 10 5 31 10 55 10 18 0 34-3 45-7 6-1 9-4 11-6 2-1 2-1 3-2 0 0 0-1 0-1 0 0 0 0 0-1-1-1-2-2-5-4z m0-34c-10-6-31-10-54-10-19 0-35 2-46 6-6 2-10 4-12 6-2 1-2 2-3 2 0 1 0 1 0 1v16c14-7 36-11 61-11 19 0 36 2 50 7 4 1 6 2 9 4v-16c0 0 0 0 0-1-1-1-2-3-5-4z m119-35c-10-5-31-10-55-10-18 0-34 3-45 6-6 2-10 4-12 6-2 1-2 2-3 3 0 0 0 0 0 1 0 0 0 0 0 0 1 1 3 3 6 5 10 6 31 10 54 10 19 0 35-3 46-6 6-2 10-4 12-6 2-1 2-2 3-3 0 0 0 0 0 0 0-1 0-1 0-1-1-1-3-3-6-5z m0-32c-10-6-31-11-55-10-18 0-34 2-45 6-6 2-10 4-12 6-2 1-2 2-3 2 0 1 0 1 0 1v14c14-7 36-11 60-11 20 0 37 3 51 7 4 1 7 3 10 4v-14c0 0 0 0 0-1-1-1-3-3-6-4z m0-37c-10-6-31-10-55-10-18 0-34 2-45 6-6 2-10 4-12 6-2 1-2 2-3 2 0 1 0 1 0 1v14c14-7 36-11 60-11 20 0 37 3 51 7 4 1 7 3 10 4v-14c0 0 0 0 0-1-1-1-3-3-6-4z m6-30c-1-1-3-3-6-5-10-5-31-10-55-10-18 0-34 3-45 7-6 1-10 4-12 6-2 1-2 1-3 2 0 1 0 1 0 1v16c14-7 36-12 60-12 20 0 37 3 51 7 4 2 7 3 10 5v-16c0 0 0 0 0-1z" horiz-adv-x="240" />
<glyph glyph-name="business_coins_add" unicode="&#xe8b2;" d="m199 15c3 1 6 3 9 4v-14c0 0 0 0 0 0-1-1-2-3-5-4-9-5-27-9-47-9-16 0-30 2-40 5-5 2-9 4-11 6-1 0-1 1-2 2 0 0 0 0 0 0v14c12-6 31-10 53-10 16 0 32 3 43 6z m-14 9c-9-1-19-2-29-2-16 0-30 2-40 5-5 2-9 3-11 5-1 1-1 2-2 2 0 1 0 1 0 1v12c12-6 29-9 49-9 10-7 21-12 33-14z m-95-1v-10c0-2 1-5 3-7v0c-10-3-25-5-41-5-15 0-29 2-39 5-5 2-9 3-11 5-1 1-1 2-2 2 0 1 0 1 0 1v14c12-6 31-10 52-10 15 0 28 2 38 5z m0 29l0-9 0 0v-8c-9-3-23-5-38-5-15 0-29 3-39 6-5 2-9 3-11 5-1 1-1 2-2 2 0 1 0 1 0 1v13c12-6 31-10 52-10 15 0 28 2 38 5z m0 24l0-9 0 0v-8c-9-3-23-5-38-5-15 0-29 3-39 6-5 2-9 3-11 5-1 1-1 2-2 2 0 1 0 1 0 1v13c12-6 31-10 52-10 15 0 28 2 38 5z m5 29c-1-1-2-2-2-3-2-2-3-4-3-6v-8c-9-3-23-5-38-5-15 0-29 3-39 6-5 1-9 3-11 5-1 1-1 2-2 2 0 1 0 1 0 1v12c12-6 31-9 52-10 17 0 31 3 43 6z m5 45c-9-5-27-9-48-9-15 0-29 3-39 6-5 1-9 3-11 5-1 1-1 2-2 2 0 0 0 1 0 1 0 0 0 0 0 0 1 1 2 3 5 4 9 5 27 9 47 9 16 0 30-2 40-5 5-2 8-4 10-6 1 0 1-1 2-2 0 0 0 0 0 0 0 0 0-1 0-1-1-1-2-2-4-4z m0-30c-9-4-27-8-48-8-15 0-29 2-39 5-5 2-9 4-11 5-1 1-1 2-2 2 0 1 0 1 0 1v14c12-6 31-10 52-10 17 0 32 2 44 6 3 1 5 2 8 4v-14c0 0 0 0 0-1-1 0-2-2-4-4z m28-36c-4 1-8 2-12 3-5 2-9 4-11 5-1 1-1 2-2 3 0 0 0 0 0 0 0 0 0 1 0 1 1 1 3 2 5 4 5 3 13 5 23 7-2-6-3-13-3-19 0-1 0-2 0-4z m-23-20c-1 1-1 2-2 2 0 1 0 1 0 1v12c7-3 16-6 27-7 2-6 4-12 7-17-8 1-15 2-21 4-5 2-9 3-11 5z m115 36h-20v20h-20v-20h-20v-20h20v-20h20v20h20v20z m-30-60c-26 0-50 24-50 50s24 50 50 50 50-24 50-50-24-50-50-50z" horiz-adv-x="240" />
<glyph glyph-name="business_coins_remove" unicode="&#xe8b3;" d="m199 15c3 1 6 3 9 4v-14c0 0 0 0 0 0-1-1-2-3-5-4-9-5-27-9-47-9-16 0-30 2-40 5-5 2-9 4-11 6-1 0-1 1-2 2 0 0 0 0 0 0v14c12-6 31-10 53-10 16 0 32 3 43 6z m-14 9c-9-1-19-2-29-2-16 0-30 2-40 5-5 2-9 3-11 5-1 1-1 2-2 2 0 1 0 1 0 1v12c12-6 29-9 49-9 10-7 21-12 33-14z m-95-1v-10c0-2 1-5 3-7v0c-10-3-25-5-41-5-15 0-29 2-39 5-5 2-9 3-11 5-1 1-1 2-2 2 0 1 0 1 0 1v14c12-6 31-10 52-10 15 0 28 2 38 5z m0 29l0-9 0 0v-8c-9-3-23-5-38-5-15 0-29 3-39 6-5 2-9 3-11 5-1 1-1 2-2 2 0 1 0 1 0 1v13c12-6 31-10 52-10 15 0 28 2 38 5z m0 24l0-9 0 0v-8c-9-3-23-5-38-5-15 0-29 3-39 6-5 2-9 3-11 5-1 1-1 2-2 2 0 1 0 1 0 1v13c12-6 31-10 52-10 15 0 28 2 38 5z m5 29c-1-1-2-2-2-3-2-2-3-4-3-6v-8c-9-3-23-5-38-5-15 0-29 3-39 6-5 1-9 3-11 5-1 1-1 2-2 2 0 1 0 1 0 1v12c12-6 31-9 52-10 17 0 31 3 43 6z m5 45c-9-5-27-9-48-9-15 0-29 3-39 6-5 1-9 3-11 5-1 1-1 2-2 2 0 0 0 1 0 1 0 0 0 0 0 0 1 1 2 3 5 4 9 5 27 9 47 9 16 0 30-2 40-5 5-2 8-4 10-6 1 0 1-1 2-2 0 0 0 0 0 0 0 0 0-1 0-1-1-1-2-2-4-4z m0-30c-9-4-27-8-48-8-15 0-29 2-39 5-5 2-9 4-11 5-1 1-1 2-2 2 0 1 0 1 0 1v14c12-6 31-10 52-10 17 0 32 2 44 6 3 1 5 2 8 4v-14c0 0 0 0 0-1-1 0-2-2-4-4z m28-36c-4 1-8 2-12 3-5 2-9 4-11 5-1 1-1 2-2 3 0 0 0 0 0 0 0 0 0 1 0 1 1 1 3 2 5 4 5 3 13 5 23 7-2-6-3-13-3-19 0-1 0-2 0-4z m-23-20c-1 1-1 2-2 2 0 1 0 1 0 1v12c7-3 16-6 27-7 2-6 4-12 7-17-8 1-15 2-21 4-5 2-9 3-11 5z m115 36h-60v-20h60v20z m-30-60c-26 0-50 24-50 50s24 50 50 50 50-24 50-50-24-50-50-50z" horiz-adv-x="240" />
<glyph glyph-name="business_gold" unicode="&#xe8b4;" d="m0 30h74l-16 30h-41l-17-30z m41 40h75l-17 30h-41l-17-30z m42-40h74l-16 30h-42l-16-30z m41 40h75l-17 30h-41l-17-30z m-41 40h74l-16 30h-42l-16-30z m83-80h74l-17 30h-41l-16-30z" horiz-adv-x="240" />
<glyph glyph-name="business_money" unicode="&#xe8b5;" d="m0 28v-5-5c0-10 8-18 18-18h5 194 5c10 0 18 8 18 18v5 5c0-10-8-18-18-18h-5-194-5c-10 0-18 8-18 18z m0 22v-8-5c0-10 8-19 18-19h5 194 5c10 0 18 9 18 19v5 8c0-10-8-22-18-22h-5-194-5c-10 0-18 12-18 22z m83 55c0-20 17-37 37-37s37 17 37 37-17 37-37 37-37-16-37-37z m28 19h18v-37h-18v37z m-93 46c-10 0-18-8-18-18v-5-82-5c0-10 8-20 18-20h5 194 5c10 0 18 10 18 20v5 82 5c0 10-8 18-18 18h-5-194-5z m28-18h148c0-2 0-4 0-5 0-13 10-23 23-23 1 0 3 0 5 0v-38c-2 1-4 1-5 1-13 0-23-10-23-23 0-2 0-3 0-5h-148c0 2 0 3 0 5 0 13-10 23-23 23-2 0-3 0-5-1v38c2 0 3 0 5 0 13 0 23 10 23 23 0 1 0 3 0 5z" horiz-adv-x="240" />
<glyph glyph-name="data_doc_pdf" unicode="&#xe8b6;" d="m170-10v-10h-150v200h120v-30h30v-40h20v50l-40 40-140 0c-6 0-10-4-10-10v-220c0-6 4-10 10-10 33 0 137 0 170 0 5 0 10 4 10 10 0 2 0 20 0 20h-20z m-68 81c-1 1-3 1-7 1h-5v-15h6c4 0 6 1 8 1 1 1 2 2 3 3 1 1 1 2 1 4 0 1-1 3-2 4-1 1-2 2-4 2z m55-2c-1 1-2 2-4 2-2 0-4 1-9 1h-4v-34h7c3 0 5 1 7 1 1 0 3 1 4 2 1 1 2 3 2 5s1 5 1 9 0 7-1 9c0 2-1 4-3 5z m73 31h-160c-5 0-10-5-10-10v-80c0-6 4-10 10-10 29 0 128 0 160 0 6 0 10 4 10 10v80c0 6-4 10-10 10z m-113-43c-1-2-3-4-5-5-1-1-3-2-5-2-2-1-6-1-10-1h-7v-19h-10v50h16c6 0 10 0 12-1 3 0 6-2 7-5 2-2 3-5 3-9 0-3 0-6-1-8z m53-13c-1-4-3-7-5-9-2-2-4-3-7-4-2-1-5-1-9-1h-19v50h18c4 0 8 0 10-1 3-1 5-2 7-4 2-3 4-5 5-9 1-3 2-7 2-11 0-5-1-8-2-11z m45 28h-24v-12h20v-9h-20v-21h-11v50h35v-8z" horiz-adv-x="240" />
<glyph glyph-name="puzzle" unicode="&#xe8b7;" d="m35 86c9 0 10-2 7-11-3-9-1-16 6-21 6-4 14-4 20 0 6 5 8 12 6 21-3 8-2 11 7 11 11 0 23 0 35 0v30c-8 2-17 3-23 6-9 4-13 12-12 21 1 6 4 12 7 17 6 9 17 9 27 7v33h-115v-114c12 0 23 0 35 0z m58 66c-4-6-4-13 0-19 4-6 12-9 20-7 10 3 14 2 14-8 0-11 0-21 0-32 10 0 17 0 26 0 5 0 4-3 4 0-2 9 1 21 8 27 9 7 18 9 29 4 11-5 15-18 14-31 0-2 2 0 3 0 10-1 19 0 29 0v114h-113c0-12 0-22 0-33 0-10-4-11-13-8-9 2-16-1-21-7z m141-78c-10 0-21 0-31 0-6 0-9 4-6 10 1 1 1 3 1 4 2 8-1 14-7 18-6 4-13 4-19-1-6-5-8-11-6-19 3-11 2-13-9-13-11 0-19 0-30 0v-31c22 0 31-7 32-23 0-6-2-12-5-17-6-11-15-11-26-9v-33h112v114c-2 0-4 0-6 0z m-88-66c4 6 4 14 0 20-5 6-12 8-21 6-8-2-10-2-10 7 0 7 0 14 0 21 0 5 0 8 0 13h-32c1-21-7-33-24-33-6 0-13 3-18 6-10 6-10 16-8 27h-33v-115h116c0 12 0 23 0 35 0 9 2 10 10 7 8-2 16 0 20 6z" horiz-adv-x="240" />
</font>
</defs>
</svg>
